<svg width="42" height="42" viewBox="0 0 42 42" fill="none" xmlns="http://www.w3.org/2000/svg">
<g clip-path="url(#clip0_242_1176)">
<path fill-rule="evenodd" clip-rule="evenodd" d="M29.001 20.4122L29.5972 19.8159H29.5985C32.9322 16.4809 33.076 12.4622 32.9847 10.8934C32.9551 10.4058 32.748 9.94595 32.4026 9.60053C32.0572 9.25512 31.5973 9.04806 31.1097 9.01843C29.5372 8.92468 25.5185 9.06843 22.1835 12.4022L21.5872 12.9984H14.296C14.0323 12.9969 13.771 13.0479 13.5272 13.1483C13.2834 13.2488 13.0621 13.3967 12.876 13.5834L8.58846 17.8734C8.3248 18.1361 8.13965 18.4671 8.05386 18.8293C7.96807 19.1914 7.98503 19.5704 8.10284 19.9234C8.22065 20.2764 8.43464 20.5896 8.72072 20.8277C9.00681 21.0657 9.35364 21.2192 9.72221 21.2709L14.531 21.9422L20.0572 27.4684L20.7285 32.2797C20.7801 32.6478 20.9336 32.9941 21.1718 33.2795C21.4099 33.5649 21.7231 33.778 22.076 33.8947C22.2815 33.9633 22.4968 33.9984 22.7135 33.9984C22.976 33.9986 23.236 33.9468 23.4785 33.8459C23.7209 33.7451 23.941 33.5973 24.126 33.4109L28.416 29.1234C28.6027 28.9373 28.7506 28.716 28.8511 28.4722C28.9515 28.2284 29.0024 27.9671 29.001 27.7034V20.4122ZM14.6447 19.9384L10.001 19.2909L14.296 14.9984H19.5872L14.6447 19.9384ZM21.001 25.5834L16.416 20.9984L23.596 13.8159C24.5569 12.8491 25.713 12.0984 26.9872 11.6141C28.2614 11.1297 29.6242 10.9228 30.9847 11.0072C31.0723 12.3684 30.8676 13.7326 30.3842 15.0081C29.9008 16.2837 29.15 17.4409 28.1822 18.4022L21.001 25.5834ZM22.0597 27.3534L27.001 22.4122V27.7034L22.7097 31.9984L22.0597 27.3534ZM10.398 25.605C11.1437 24.8592 12.0546 24.481 13.1305 24.4704C14.2065 24.4597 15.1174 24.8273 15.8631 25.573C16.6088 26.3187 16.9764 27.2296 16.9657 28.3056C16.9551 29.3815 16.5769 30.2924 15.8311 31.0381C15.2985 31.5708 14.4089 32.0289 13.1625 32.4124C11.9161 32.7959 10.1956 33.1368 8.00098 33.4351C8.29927 31.2405 8.64017 29.52 9.02369 28.2736C9.40721 27.0272 9.8653 26.1376 10.398 25.605ZM24.4724 19.4351C25.577 19.4351 26.4724 18.5397 26.4724 17.4351C26.4724 16.3306 25.577 15.4351 24.4724 15.4351C23.3678 15.4351 22.4724 16.3306 22.4724 17.4351C22.4724 18.5397 23.3678 19.4351 24.4724 19.4351Z" fill="black"/>
<circle cx="21" cy="21" r="20" stroke="black" stroke-width="2"/>
</g>
<defs>
<clipPath id="clip0_242_1176">
<rect width="42" height="42" fill="white"/>
</clipPath>
</defs>
</svg>
