<svg width="42" height="42" viewBox="0 0 42 42" fill="none" xmlns="http://www.w3.org/2000/svg">
<g clip-path="url(#clip0_242_1186)">
<circle cx="21" cy="21" r="20" stroke="black" stroke-width="2"/>
<path d="M8.4 20.8038C8.50506 20.8826 8.62461 20.9399 8.75182 20.9725C8.87903 21.0051 9.01142 21.0123 9.14142 20.9937C9.27142 20.9751 9.39649 20.9311 9.50949 20.8642C9.62249 20.7973 9.72121 20.7088 9.8 20.6038C10.4055 19.7965 11.1906 19.1413 12.0931 18.69C12.9957 18.2387 13.9909 18.0038 15 18.0038C16.0091 18.0038 17.0043 18.2387 17.9069 18.69C18.8094 19.1413 19.5945 19.7965 20.2 20.6038C20.3593 20.8157 20.5963 20.9558 20.8588 20.993C21.1214 21.0303 21.388 20.9618 21.6 20.8025C21.6756 20.7463 21.7425 20.6794 21.7987 20.6038C22.4042 19.7965 23.1893 19.1413 24.0919 18.69C24.9944 18.2387 25.9897 18.0038 26.9988 18.0038C28.0078 18.0038 29.0031 18.2387 29.9056 18.69C30.8082 19.1413 31.5933 19.7965 32.1987 20.6038C32.358 20.8159 32.5951 20.9561 32.8578 20.9935C33.1204 21.0309 33.3872 20.9624 33.5994 20.8031C33.8115 20.6438 33.9518 20.4068 33.9891 20.1441C34.0265 19.8815 33.958 19.6147 33.7987 19.4025C32.9136 18.2159 31.7332 17.2816 30.375 16.6925C31.1196 16.0127 31.6413 15.1236 31.8716 14.142C32.1019 13.1604 32.03 12.1321 31.6654 11.192C31.3009 10.252 30.6606 9.44414 29.8287 8.87448C28.9967 8.30483 28.012 8 27.0037 8C25.9955 8 25.0108 8.30483 24.1788 8.87448C23.3469 9.44414 22.7066 10.252 22.3421 11.192C21.9775 12.1321 21.9056 13.1604 22.1359 14.142C22.3662 15.1236 22.8879 16.0127 23.6325 16.6925C22.6518 17.1166 21.7609 17.7237 21.0075 18.4813C20.2541 17.7237 19.3632 17.1166 18.3825 16.6925C19.1271 16.0127 19.6488 15.1236 19.8791 14.142C20.1094 13.1604 20.0375 12.1321 19.6729 11.192C19.3084 10.252 18.6681 9.44414 17.8362 8.87448C17.0042 8.30483 16.0195 8 15.0112 8C14.003 8 13.0183 8.30483 12.1863 8.87448C11.3544 9.44414 10.7141 10.252 10.3496 11.192C9.98499 12.1321 9.91313 13.1604 10.1434 14.142C10.3737 15.1236 10.8954 16.0127 11.64 16.6925C10.2758 17.2796 9.08963 18.2145 8.2 19.4038C8.12121 19.5088 8.06388 19.6284 8.03129 19.7556C7.99869 19.8828 7.99148 20.0152 8.01005 20.1452C8.02862 20.2752 8.07262 20.4003 8.13953 20.5133C8.20643 20.6263 8.29494 20.725 8.4 20.8038ZM15 10.0038C15.5933 10.0038 16.1734 10.1797 16.6667 10.5094C17.1601 10.839 17.5446 11.3075 17.7716 11.8557C17.9987 12.4039 18.0581 13.0071 17.9424 13.589C17.8266 14.171 17.5409 14.7055 17.1213 15.1251C16.7018 15.5446 16.1672 15.8304 15.5853 15.9461C15.0033 16.0619 14.4001 16.0025 13.8519 15.7754C13.3038 15.5483 12.8352 15.1638 12.5056 14.6705C12.1759 14.1771 12 13.5971 12 13.0038C12 12.2081 12.3161 11.4451 12.8787 10.8824C13.4413 10.3198 14.2044 10.0038 15 10.0038ZM30.375 29.6925C31.1196 29.0127 31.6413 28.1236 31.8716 27.142C32.1019 26.1604 32.03 25.1321 31.6654 24.192C31.3009 23.252 30.6606 22.4441 29.8287 21.8745C28.9967 21.3048 28.012 21 27.0037 21C25.9955 21 25.0108 21.3048 24.1788 21.8745C23.3469 22.4441 22.7066 23.252 22.3421 24.192C21.9775 25.1321 21.9056 26.1604 22.1359 27.142C22.3662 28.1236 22.8879 29.0127 23.6325 29.6925C22.6518 30.1166 21.7609 30.7237 21.0075 31.4813C20.2541 30.7237 19.3632 30.1166 18.3825 29.6925C19.1271 29.0127 19.6488 28.1236 19.8791 27.142C20.1094 26.1604 20.0375 25.1321 19.6729 24.192C19.3084 23.252 18.6681 22.4441 17.8362 21.8745C17.0042 21.3048 16.0195 21 15.0112 21C14.003 21 13.0183 21.3048 12.1863 21.8745C11.3544 22.4441 10.7141 23.252 10.3496 24.192C9.98499 25.1321 9.91313 26.1604 10.1434 27.142C10.3737 28.1236 10.8954 29.0127 11.64 29.6925C10.2758 30.2796 9.08963 31.2145 8.2 32.4038C8.12121 32.5088 8.06388 32.6284 8.03129 32.7556C7.99869 32.8828 7.99148 33.0152 8.01005 33.1452C8.02862 33.2752 8.07262 33.4003 8.13953 33.5133C8.20643 33.6263 8.29494 33.725 8.4 33.8038C8.50506 33.8826 8.62461 33.9399 8.75182 33.9725C8.87903 34.0051 9.01142 34.0123 9.14142 33.9937C9.27142 33.9751 9.39649 33.9311 9.50949 33.8642C9.62249 33.7973 9.72121 33.7088 9.8 33.6038C10.4055 32.7965 11.1906 32.1413 12.0931 31.69C12.9957 31.2387 13.9909 31.0038 15 31.0038C16.0091 31.0038 17.0043 31.2387 17.9069 31.69C18.8094 32.1413 19.5945 32.7965 20.2 33.6038C20.3593 33.8157 20.5963 33.9558 20.8588 33.993C21.1214 34.0303 21.388 33.9618 21.6 33.8025C21.6756 33.7463 21.7425 33.6794 21.7987 33.6038C22.4042 32.7965 23.1893 32.1413 24.0919 31.69C24.9944 31.2387 25.9897 31.0038 26.9988 31.0038C28.0078 31.0038 29.0031 31.2387 29.9056 31.69C30.8082 32.1413 31.5933 32.7965 32.1987 33.6038C32.358 33.8159 32.5951 33.9561 32.8578 33.9935C33.1204 34.0309 33.3872 33.9624 33.5994 33.8031C33.8115 33.6438 33.9518 33.4068 33.9891 33.1441C34.0265 32.8815 33.958 32.6147 33.7987 32.4025C32.9136 31.2159 31.7332 30.2816 30.375 29.6925ZM15 23.0038C15.5933 23.0038 16.1734 23.1797 16.6667 23.5094C17.1601 23.839 17.5446 24.3075 17.7716 24.8557C17.9987 25.4039 18.0581 26.0071 17.9424 26.589C17.8266 27.171 17.5409 27.7055 17.1213 28.1251C16.7018 28.5446 16.1672 28.8304 15.5853 28.9461C15.0033 29.0619 14.4001 29.0025 13.8519 28.7754C13.3038 28.5483 12.8352 28.1638 12.5056 27.6705C12.1759 27.1771 12 26.5971 12 26.0038C12 25.2081 12.3161 24.4451 12.8787 23.8824C13.4413 23.3198 14.2044 23.0038 15 23.0038ZM27 23.0038C27.5933 23.0038 28.1734 23.1797 28.6667 23.5094C29.1601 23.839 29.5446 24.3075 29.7716 24.8557C29.9987 25.4039 30.0581 26.0071 29.9424 26.589C29.8266 27.171 29.5409 27.7055 29.1213 28.1251C28.7018 28.5446 28.1672 28.8304 27.5853 28.9461C27.0033 29.0619 26.4001 29.0025 25.8519 28.7754C25.3038 28.5483 24.8352 28.1638 24.5056 27.6705C24.1759 27.1771 24 26.5971 24 26.0038C24 25.2081 24.3161 24.4451 24.8787 23.8824C25.4413 23.3198 26.2044 23.0038 27 23.0038Z" fill="black"/>
</g>
<defs>
<clipPath id="clip0_242_1186">
<rect width="42" height="42" fill="white"/>
</clipPath>
</defs>
</svg>
