<svg width="42" height="42" viewBox="0 0 42 42" fill="none" xmlns="http://www.w3.org/2000/svg">
<path d="M35.4375 3.9375H6.5625C5.86631 3.9375 5.19863 4.21406 4.70634 4.70634C4.21406 5.19863 3.9375 5.86631 3.9375 6.5625V35.4375C3.9375 36.1337 4.21406 36.8014 4.70634 37.2937C5.19863 37.7859 5.86631 38.0625 6.5625 38.0625H35.4375C36.1337 38.0625 36.8014 37.7859 37.2937 37.2937C37.7859 36.8014 38.0625 36.1337 38.0625 35.4375V6.5625C38.0625 5.86631 37.7859 5.19863 37.2937 4.70634C36.8014 4.21406 36.1337 3.9375 35.4375 3.9375ZM35.4375 35.4375H6.5625V6.5625H35.4375V35.4375ZM15.75 18.375V28.875C15.75 29.2231 15.6117 29.5569 15.3656 29.8031C15.1194 30.0492 14.7856 30.1875 14.4375 30.1875C14.0894 30.1875 13.7556 30.0492 13.5094 29.8031C13.2633 29.5569 13.125 29.2231 13.125 28.875V18.375C13.125 18.0269 13.2633 17.6931 13.5094 17.4469C13.7556 17.2008 14.0894 17.0625 14.4375 17.0625C14.7856 17.0625 15.1194 17.2008 15.3656 17.4469C15.6117 17.6931 15.75 18.0269 15.75 18.375ZM30.1875 22.9688V28.875C30.1875 29.2231 30.0492 29.5569 29.8031 29.8031C29.5569 30.0492 29.2231 30.1875 28.875 30.1875C28.5269 30.1875 28.1931 30.0492 27.9469 29.8031C27.7008 29.5569 27.5625 29.2231 27.5625 28.875V22.9688C27.5625 22.0985 27.2168 21.2639 26.6014 20.6486C25.9861 20.0332 25.1515 19.6875 24.2812 19.6875C23.411 19.6875 22.5764 20.0332 21.9611 20.6486C21.3457 21.2639 21 22.0985 21 22.9688V28.875C21 29.2231 20.8617 29.5569 20.6156 29.8031C20.3694 30.0492 20.0356 30.1875 19.6875 30.1875C19.3394 30.1875 19.0056 30.0492 18.7594 29.8031C18.5133 29.5569 18.375 29.2231 18.375 28.875V18.375C18.3766 18.0535 18.4962 17.7438 18.711 17.5046C18.9258 17.2654 19.221 17.1134 19.5405 17.0774C19.8599 17.0414 20.1815 17.1239 20.4442 17.3092C20.7069 17.4946 20.8924 17.7699 20.9655 18.083C21.8534 17.4807 22.8886 17.1316 23.9599 17.0732C25.0312 17.0148 26.0982 17.2494 27.0463 17.7517C27.9944 18.2539 28.7877 19.005 29.3411 19.9241C29.8945 20.8433 30.1871 21.8958 30.1875 22.9688ZM16.4062 13.7812C16.4062 14.1706 16.2908 14.5513 16.0745 14.875C15.8581 15.1988 15.5506 15.4511 15.1909 15.6001C14.8312 15.7491 14.4353 15.7881 14.0534 15.7122C13.6715 15.6362 13.3207 15.4487 13.0454 15.1734C12.77 14.898 12.5825 14.5472 12.5066 14.1653C12.4306 13.7834 12.4696 13.3876 12.6186 13.0278C12.7676 12.6681 13.02 12.3606 13.3437 12.1443C13.6675 11.928 14.0481 11.8125 14.4375 11.8125C14.9596 11.8125 15.4604 12.0199 15.8296 12.3891C16.1988 12.7583 16.4062 13.2591 16.4062 13.7812Z" fill="white"/>
</svg>
