<svg width="31" height="1069" viewBox="0 0 31 1069" fill="none" xmlns="http://www.w3.org/2000/svg">
<path d="M0.03 516.59L0 519.25L10.69 508.56V494.06L0.03 504.72V516.59Z" fill="#47494D"/>
<path d="M0.03 493.68L0 496.35L10.69 485.66V471.16L0.03 481.82V493.68Z" fill="#47494D"/>
<path d="M0.03 470.78L0 473.45L10.69 462.76V448.26L0.03 458.92V470.78Z" fill="#47494D"/>
<path d="M0.03 447.88L0 450.55L10.69 439.85V425.35L0.03 436.01V447.88Z" fill="#47494D"/>
<path d="M0.03 424.98L0 427.64L10.69 416.95V402.45L0.03 413.11V424.98Z" fill="#47494D"/>
<path d="M0.03 402.07L0 404.75L10.69 394.05V379.55L0.03 390.21V402.07Z" fill="#47494D"/>
<path d="M0.03 379.17L0 381.84L10.69 371.15V356.65L0.03 367.31V379.17Z" fill="#47494D"/>
<path d="M0.03 356.27L0 358.94L10.69 348.25V333.75L0.03 344.41V356.27Z" fill="#47494D"/>
<path d="M0.03 333.37L0 336.04L10.69 325.34V310.84L0.03 321.5V333.37Z" fill="#47494D"/>
<path d="M0.03 310.47L0 313.13L10.69 302.44V287.94L0.03 298.6V310.47Z" fill="#47494D"/>
<path d="M10.3902 44.6605L50.9402 4.12055V0L6.99023 43.1002V281.781L10.3902 278.781V44.6605Z" fill="#47494D"/>
<path d="M0.0302754 770.651L4.35028 773.511L10.6903 762.621L10.6903 748.121L0.0302744 758.781L0.0302754 770.651Z" fill="#87FF4F"/>
<path d="M0.030002 747.75L2.20218e-06 750.41L10.69 739.72L10.69 725.22L0.0300009 735.88L0.030002 747.75Z" fill="#87FF4F"/>
<path d="M0.030002 724.84L2.20218e-06 727.51L10.69 716.82L10.69 702.32L0.0300009 712.98L0.030002 724.84Z" fill="#87FF4F"/>
<path d="M0.030002 701.94L2.20218e-06 704.61L10.69 693.92L10.69 679.42L0.0300009 690.08L0.030002 701.94Z" fill="#87FF4F"/>
<path d="M0.030002 679.04L2.20306e-06 681.71L10.69 671.01L10.69 656.51L0.0300009 667.17L0.030002 679.04Z" fill="#87FF4F"/>
<path d="M0.030002 656.14L2.20218e-06 658.8L10.69 648.11L10.69 633.61L0.0300009 644.27L0.030002 656.14Z" fill="#87FF4F"/>
<path d="M0.030002 633.23L2.20305e-06 635.91L10.69 625.21L10.69 610.71L0.0300009 621.37L0.030002 633.23Z" fill="#87FF4F"/>
<path d="M0.030002 610.33L2.20218e-06 613L10.69 602.31L10.69 587.81L0.0300009 598.47L0.030002 610.33Z" fill="#87FF4F"/>
<path d="M0.030002 587.431L2.20218e-06 590.101L10.69 579.411L10.69 564.911L0.0300009 575.571L0.030002 587.431Z" fill="#87FF4F"/>
<path d="M0.030002 564.53L2.20306e-06 567.201L10.69 556.5L10.69 542L0.0300009 552.66L0.030002 564.53Z" fill="#87FF4F"/>
<path d="M0.030002 541.63L2.20218e-06 544.29L10.69 533.6L10.69 519.1L0.0300009 529.76L0.030002 541.63Z" fill="#87FF4F"/>
<path d="M3.4 1016.22L51 1063.81V1068.75L0 1018.6V779.1L3.4 782.1V1016.22Z" fill="#47494D"/>
</svg>
