<svg width="22" height="330" viewBox="0 0 22 330" fill="none" xmlns="http://www.w3.org/2000/svg">
<path d="M4.96163 57.1577C6.82004 57.1577 8.33536 55.6438 8.33536 53.7872C8.33536 52.2733 7.33468 51.0022 5.96231 50.588V18.725L21.8732 2.82921V-1.62338e-05L3.96094 17.8967V50.5737C2.58858 51.0022 1.58789 52.2733 1.58789 53.7729C1.58789 55.6296 3.10321 57.1434 4.96163 57.1434V57.1577Z" fill="#87FF4F"/>
<path d="M11.0928 83.9221L0.928711 94.0765V177.997L10.4638 187.523V258.59L21.5285 269.63L21.986 57.1577L11.0928 68.0406V83.9221Z" fill="#47494D"/>
<path d="M10.5917 273.686V295.209L21.9995 306.621V282.198L10.5488 270.759L10.5917 273.686Z" fill="#47494D"/>
<path d="M10.5917 310.662V318.603L21.9995 330V319.174L10.5488 307.734L10.5917 310.662Z" fill="#87FF4F"/>
</svg>
