<svg width="67" height="901" viewBox="0 0 67 901" fill="none" xmlns="http://www.w3.org/2000/svg">
<path d="M38.063 862.937L38.063 900H1L1 862.937H38.063ZM37.3777 899.315L37.3777 863.622H1.68468L1.68468 899.315H37.3777Z" fill="white" stroke="white"/>
<path d="M38.063 812.398L38.063 849.467H1L1 812.398H38.063ZM37.3777 848.781L37.3777 813.083H1.68468L1.68468 848.778L37.3777 848.781Z" fill="white" stroke="white"/>
<path d="M38.063 761.857L38.063 798.92H1L1 761.857H38.063ZM37.3777 798.236L37.3777 762.542H1.68468L1.68468 798.236H37.3777Z" fill="white" stroke="white"/>
<path d="M38.063 711.316L38.063 748.382H1L1 711.314L38.063 711.316ZM37.3777 747.699L37.3777 712.005H1.68468L1.68468 747.698L37.3777 747.699Z" fill="white" stroke="white"/>
<path d="M38.063 660.779L38.063 697.842H1L1 660.779H38.063ZM37.3777 697.157L37.3777 661.463H1.68468L1.68468 697.157H37.3777Z" fill="white" stroke="white"/>
<g opacity="0.5">
<mask id="mask0_195_7220" style="mask-type:luminance" maskUnits="userSpaceOnUse" x="7" y="666" width="25" height="26">
<path d="M7.69336 667.467L7.69336 691.151H31.3768L31.3768 667.467H7.69336Z" fill="white" stroke="white"/>
</mask>
<g mask="url(#mask0_195_7220)">
<path d="M7.69336 667.469L7.69336 691.154H31.3787L31.3787 667.469H7.69336Z" fill="white" stroke="white"/>
</g>
</g>
<g opacity="0.5">
<mask id="mask1_195_7220" style="mask-type:luminance" maskUnits="userSpaceOnUse" x="55" y="818" width="26" height="26">
<path d="M56.0498 819.086V842.77H79.7332V819.086H56.0498Z" fill="white" stroke="white"/>
</mask>
<g mask="url(#mask1_195_7220)">
<path d="M56.0459 819.086V842.771H79.7312V819.086H56.0459Z" fill="white" stroke="white"/>
</g>
</g>
<g opacity="0.5">
<mask id="mask2_195_7220" style="mask-type:luminance" maskUnits="userSpaceOnUse" x="55" y="515" width="26" height="26">
<path d="M56.0498 515.851V539.532H79.7332V515.851H56.0498Z" fill="white" stroke="white"/>
</mask>
<g mask="url(#mask2_195_7220)">
<path d="M56.0459 515.851V539.536H79.7312V515.851H56.0459Z" fill="white" stroke="white"/>
</g>
</g>
<g opacity="0.5">
<mask id="mask3_195_7220" style="mask-type:luminance" maskUnits="userSpaceOnUse" x="55" y="565" width="26" height="26">
<path d="M56.0498 566.389V590.073H79.7332V566.389H56.0498Z" fill="white" stroke="white"/>
</mask>
<g mask="url(#mask3_195_7220)">
<path d="M56.0459 566.389V590.074H79.7312V566.389H56.0459Z" fill="white" stroke="white"/>
</g>
</g>
<path d="M38.063 610.24L38.063 647.303H1L1 610.24H38.063ZM37.3777 646.619L37.3777 610.925H1.68468L1.68468 646.619H37.3777Z" fill="white" stroke="white"/>
<path d="M38.063 559.699L38.063 596.767H1L1 559.699H38.063ZM37.3777 596.077L37.3777 560.383H1.68468L1.68468 596.077H37.3777Z" fill="white" stroke="white"/>
<path d="M38.063 509.161L38.063 546.221H1L1 509.158L38.063 509.161ZM37.3777 545.539L37.3777 509.845H1.68468L1.68468 545.536L37.3777 545.539Z" fill="white" stroke="white"/>
<path d="M38.063 458.619L38.063 495.688H1L1 458.619H38.063ZM37.3777 494.997L37.3777 459.304H1.68468L1.68468 494.997H37.3777Z" fill="white" stroke="white"/>
<path d="M86.4202 862.937V900H49.3516L49.3516 862.937H86.4202ZM85.7349 899.315V863.622H50.0418L50.0418 899.315H85.7349Z" fill="white" stroke="white"/>
<path d="M86.4202 812.398V849.467H49.3516L49.3516 812.398H86.4202ZM85.7349 848.781V813.083H50.0418L50.0418 848.778L85.7349 848.781Z" fill="white" stroke="white"/>
<path d="M86.4202 761.857V798.92H49.3516L49.3516 761.857H86.4202ZM85.7349 798.236V762.542H50.0418L50.0418 798.236H85.7349Z" fill="white" stroke="white"/>
<path d="M86.4202 711.316V748.382H49.3516L49.3516 711.314L86.4202 711.316ZM85.7349 747.699V712.005H50.0418L50.0418 747.698L85.7349 747.699Z" fill="white" stroke="white"/>
<path d="M86.4202 660.779V697.842H49.3516L49.3516 660.779H86.4202ZM85.7349 697.157V661.463H50.0418L50.0418 697.157H85.7349Z" fill="white" stroke="white"/>
<path d="M86.4202 610.24V647.303H49.3516L49.3516 610.24H86.4202ZM85.7349 646.619V610.925H50.0418L50.0418 646.619H85.7349Z" fill="white" stroke="white"/>
<path d="M86.4202 559.699V596.767H49.3516L49.3516 559.699H86.4202ZM85.7349 596.077V560.383H50.0418L50.0418 596.077H85.7349Z" fill="white" stroke="white"/>
<path d="M86.4202 509.161V546.221H49.3516L49.3516 509.158L86.4202 509.161ZM85.7349 545.539V509.845H50.0418L50.0418 545.536L85.7349 545.539Z" fill="white" stroke="white"/>
<path d="M86.4202 458.619V495.688H49.3516L49.3516 458.619H86.4202ZM85.7349 494.997V459.304H50.0418L50.0418 494.997H85.7349Z" fill="white" stroke="white"/>
<path d="M37.9653 848.875L37.4819 849.363L1.10352 812.979L1.58759 812.492L37.9653 848.875Z" fill="white" stroke="white"/>
<path d="M49.458 798.336L49.9443 798.823L86.3241 762.443L85.8378 761.956L49.458 798.336Z" fill="white" stroke="white"/>
<path d="M37.9666 509.746L1.58759 546.125L1.10352 545.638L37.4825 509.257L37.9666 509.746Z" fill="white" stroke="white"/>
<path d="M37.9653 495.098L37.4819 495.585L1.10352 459.202L1.58759 458.714L37.9653 495.098Z" fill="white" stroke="white"/>
<path d="M38.063 405.318L38.063 442.381H1L1 405.318H38.063ZM37.3777 441.696L37.3777 406.003H1.68468L1.68468 441.696H37.3777Z" fill="white" stroke="white"/>
<path d="M38.063 354.779L38.063 391.847H1L1 354.779H38.063ZM37.3777 391.162L37.3777 355.464H1.68468L1.68468 391.158L37.3777 391.162Z" fill="white" stroke="white"/>
<path d="M38.063 304.238L38.063 341.301H1L1 304.238H38.063ZM37.3777 340.617L37.3777 304.923H1.68468L1.68468 340.617H37.3777Z" fill="white" stroke="white"/>
<path d="M38.063 253.696L38.063 290.763H1L1 253.695L38.063 253.696ZM37.3777 290.08L37.3777 254.386H1.68468L1.68468 290.079L37.3777 290.08Z" fill="white" stroke="white"/>
<path d="M38.063 203.159L38.063 240.222H1L1 203.159H38.063ZM37.3777 239.538L37.3777 203.844H1.68468L1.68468 239.538H37.3777Z" fill="white" stroke="white"/>
<g opacity="0.5">
<mask id="mask4_195_7220" style="mask-type:luminance" maskUnits="userSpaceOnUse" x="7" y="209" width="25" height="26">
<path d="M7.69336 209.848L7.69336 233.532H31.3768L31.3768 209.848H7.69336Z" fill="white" stroke="white"/>
</mask>
<g mask="url(#mask4_195_7220)">
<path d="M7.69336 209.849L7.69336 233.535H31.3787L31.3787 209.849H7.69336Z" fill="white" stroke="white"/>
</g>
</g>
<g opacity="0.5">
<mask id="mask5_195_7220" style="mask-type:luminance" maskUnits="userSpaceOnUse" x="55" y="360" width="26" height="26">
<path d="M56.0498 361.467V385.151H79.7332V361.467H56.0498Z" fill="white" stroke="white"/>
</mask>
<g mask="url(#mask5_195_7220)">
<path d="M56.0459 361.467V385.152H79.7312V361.467H56.0459Z" fill="white" stroke="white"/>
</g>
</g>
<g opacity="0.5">
<mask id="mask6_195_7220" style="mask-type:luminance" maskUnits="userSpaceOnUse" x="55" y="57" width="26" height="26">
<path d="M56.0498 58.2315V81.9131H79.7332V58.2315H56.0498Z" fill="white" stroke="white"/>
</mask>
<g mask="url(#mask6_195_7220)">
<path d="M56.0459 58.2317V81.917H79.7312V58.2317H56.0459Z" fill="white" stroke="white"/>
</g>
</g>
<g opacity="0.5">
<mask id="mask7_195_7220" style="mask-type:luminance" maskUnits="userSpaceOnUse" x="55" y="108" width="26" height="25">
<path d="M56.0498 108.77V132.454H79.7332V108.77H56.0498Z" fill="white" stroke="white"/>
</mask>
<g mask="url(#mask7_195_7220)">
<path d="M56.0459 108.77V132.455H79.7312V108.77H56.0459Z" fill="white" stroke="white"/>
</g>
</g>
<path d="M38.063 152.621L38.063 189.684H1L1 152.621H38.063ZM37.3777 189L37.3777 153.306H1.68468L1.68468 189H37.3777Z" fill="white" stroke="white"/>
<path d="M38.063 102.08L38.063 139.148H1L1 102.08H38.063ZM37.3777 138.458L37.3777 102.764H1.68468L1.68468 138.458H37.3777Z" fill="white" stroke="white"/>
<path d="M38.063 51.5415L38.063 88.6021H1L1 51.539L38.063 51.5415ZM37.3777 87.9199L37.3777 52.2262L1.68468 52.2262L1.68468 87.9167L37.3777 87.9199Z" fill="white" stroke="white"/>
<path d="M38.063 0.999954L38.063 38.0686L1 38.0686L1 0.999954L38.063 0.999954ZM37.3777 37.3783L37.3777 1.68464L1.68468 1.68464L1.68468 37.3783L37.3777 37.3783Z" fill="white" stroke="white"/>
<path d="M86.4202 405.318V442.381H49.3516L49.3516 405.318H86.4202ZM85.7349 441.696V406.003H50.0418L50.0418 441.696H85.7349Z" fill="white" stroke="white"/>
<path d="M86.4202 354.779V391.847H49.3516L49.3516 354.779H86.4202ZM85.7349 391.162V355.464H50.0418L50.0418 391.158L85.7349 391.162Z" fill="white" stroke="white"/>
<path d="M86.4202 304.238V341.301H49.3516L49.3516 304.238H86.4202ZM85.7349 340.617V304.923H50.0418L50.0418 340.617H85.7349Z" fill="white" stroke="white"/>
<path d="M86.4202 253.696V290.763H49.3516L49.3516 253.695L86.4202 253.696ZM85.7349 290.08V254.386H50.0418L50.0418 290.079L85.7349 290.08Z" fill="white" stroke="white"/>
<path d="M86.4202 203.159V240.222H49.3516L49.3516 203.159H86.4202ZM85.7349 239.538V203.844H50.0418L50.0418 239.538H85.7349Z" fill="white" stroke="white"/>
<path d="M86.4202 152.621V189.684H49.3516L49.3516 152.621H86.4202ZM85.7349 189V153.306H50.0418L50.0418 189H85.7349Z" fill="white" stroke="white"/>
<path d="M86.4202 102.08V139.148H49.3516L49.3516 102.08H86.4202ZM85.7349 138.458V102.764H50.0418L50.0418 138.458H85.7349Z" fill="white" stroke="white"/>
<path d="M86.4202 51.5415V88.6021H49.3516L49.3516 51.539L86.4202 51.5415ZM85.7349 87.9199V52.2262L50.0418 52.2262L50.0418 87.9167L85.7349 87.9199Z" fill="white" stroke="white"/>
<path d="M86.4202 0.999954V38.0686L49.3516 38.0686L49.3516 0.999954L86.4202 0.999954ZM85.7349 37.3783V1.68464L50.0418 1.68464L50.0418 37.3783L85.7349 37.3783Z" fill="white" stroke="white"/>
<path d="M37.9653 391.256L37.4819 391.743L1.10352 355.36L1.58759 354.873L37.9653 391.256Z" fill="white" stroke="white"/>
<path d="M49.458 340.717L49.9443 341.203L86.3241 304.824L85.8378 304.337L49.458 340.717Z" fill="white" stroke="white"/>
<path d="M37.9666 52.1273L1.58759 88.5056L1.10352 88.0184L37.4825 51.6382L37.9666 52.1273Z" fill="white" stroke="white"/>
<path d="M37.9653 37.4791L37.4819 37.9663L1.10352 1.58297L1.58759 1.09515L37.9653 37.4791Z" fill="white" stroke="white"/>
</svg>
