<svg width="30" height="1218" viewBox="0 0 30 1218" fill="none" xmlns="http://www.w3.org/2000/svg">
<path d="M29.0879 588.731L29.1221 591.763L16.9392 579.58V563.055L29.0879 575.204V588.731Z" fill="#47494D"/>
<path d="M29.0879 562.622L29.1221 565.665L16.9392 553.482V536.957L29.0879 549.106V562.622Z" fill="#47494D"/>
<path d="M29.0879 536.524L29.1221 539.567L16.9392 527.384V510.859L29.0879 523.008V536.524Z" fill="#47494D"/>
<path d="M29.0879 510.426L29.1221 513.469L16.9392 501.275V484.75L29.0879 496.898V510.426Z" fill="#47494D"/>
<path d="M29.0879 484.328L29.1221 487.359L16.9392 475.177V458.652L29.0879 470.8V484.328Z" fill="#47494D"/>
<path d="M29.0879 458.219L29.1221 461.273L16.9392 449.079V432.554L29.0879 444.702V458.219Z" fill="#47494D"/>
<path d="M29.0879 432.121L29.1221 435.164L16.9392 422.981V406.456L29.0879 418.604V432.121Z" fill="#47494D"/>
<path d="M29.0879 406.023L29.1221 409.066L16.9392 396.883V380.358L29.0879 392.507V406.023Z" fill="#47494D"/>
<path d="M29.0879 379.925L29.1221 382.968L16.9392 370.773V354.248L29.0879 366.397V379.925Z" fill="#47494D"/>
<path d="M29.0879 353.827L29.1221 356.858L16.9392 344.675V328.151L29.0879 340.299V353.827Z" fill="#47494D"/>
<path d="M17.2805 50.8973L-28.9323 4.69598V0L21.1553 49.1191V321.131L17.2805 317.712V50.8973Z" fill="#47494D"/>
<path d="M29.0879 878.271L24.1646 881.53L16.9392 869.12L16.9392 852.595L29.0879 864.743L29.0879 878.271Z" fill="#87FF4F"/>
<path d="M29.0879 852.172L29.1221 855.204L16.9392 843.021L16.9392 826.496L29.0879 838.645L29.0879 852.172Z" fill="#87FF4F"/>
<path d="M29.0879 826.063L29.1221 829.106L16.9392 816.923L16.9392 800.398L29.0879 812.546L29.0879 826.063Z" fill="#87FF4F"/>
<path d="M29.0879 799.965L29.1221 803.008L16.9392 790.825L16.9392 774.301L29.0879 786.449L29.0879 799.965Z" fill="#87FF4F"/>
<path d="M29.0879 773.867L29.1221 776.91L16.9392 764.716L16.9392 748.191L29.0879 760.34L29.0879 773.867Z" fill="#87FF4F"/>
<path d="M29.0879 747.769L29.1221 750.8L16.9392 738.617L16.9392 722.093L29.0879 734.241L29.0879 747.769Z" fill="#87FF4F"/>
<path d="M29.0879 721.66L29.1221 724.714L16.9392 712.52L16.9392 695.995L29.0879 708.144L29.0879 721.66Z" fill="#87FF4F"/>
<path d="M29.0879 695.562L29.1221 698.605L16.9392 686.422L16.9392 669.897L29.0879 682.046L29.0879 695.562Z" fill="#87FF4F"/>
<path d="M29.0879 669.464L29.1221 672.507L16.9392 660.324L16.9392 643.8L29.0879 655.948L29.0879 669.464Z" fill="#87FF4F"/>
<path d="M29.0879 643.366L29.1221 646.409L16.9392 634.215L16.9392 617.69L29.0879 629.839L29.0879 643.366Z" fill="#87FF4F"/>
<path d="M29.0879 617.268L29.1221 620.299L16.9392 608.117L16.9392 591.592L29.0879 603.74L29.0879 617.268Z" fill="#87FF4F"/>
<path d="M25.2473 1158.13L-29 1212.37V1218L29.1221 1160.85V887.9L25.2473 891.319V1158.13Z" fill="#47494D"/>
</svg>
