<svg width="32" height="502" viewBox="0 0 32 502" fill="none" xmlns="http://www.w3.org/2000/svg">
<path d="M25.8765 87.6525C23.0543 87.6525 20.7531 85.3535 20.7531 82.5339C20.7531 80.2349 22.2727 78.3045 24.3569 77.6756V29.2873L0.194029 5.14737V0.850805L27.3962 28.0293V77.6539C29.4803 78.3045 31 80.2349 31 82.5122C31 85.3318 28.6988 87.6308 25.8765 87.6308V87.6525Z" fill="#87FF4F"/>
<path d="M16.5644 128.298L32 143.719V271.164L17.5197 285.63V393.555L0.716415 410.321L0.0217075 87.6526L16.5644 104.18V128.298Z" fill="#47494D"/>
<path d="M17.3245 416.48V449.166L0.000230789 466.495V429.407L17.3896 412.034L17.3245 416.48Z" fill="#47494D"/>
<path d="M17.3245 472.633V484.692L0.000230789 502V485.56L17.3896 468.187L17.3245 472.633Z" fill="#87FF4F"/>
</svg>
