<svg width="69" height="443" viewBox="0 0 69 443" fill="none" xmlns="http://www.w3.org/2000/svg">
<path d="M38.063 405.318L38.063 442.381H1L1 405.318H38.063ZM37.3777 441.697L37.3777 406.003H1.68468L1.68468 441.697H37.3777Z" fill="#87FF4F" stroke="#87FF4F"/>
<path d="M38.063 354.779L38.063 391.848H1L1 354.779H38.063ZM37.3777 391.163L37.3777 355.465H1.68468L1.68468 391.159L37.3777 391.163Z" fill="#87FF4F" stroke="#87FF4F"/>
<path d="M38.063 304.239L38.063 341.302H1L1 304.239H38.063ZM37.3777 340.617L37.3777 304.923H1.68468L1.68468 340.617H37.3777Z" fill="#87FF4F" stroke="#87FF4F"/>
<path d="M38.063 253.697L38.063 290.764H1L1 253.695L38.063 253.697ZM37.3777 290.08L37.3777 254.387H1.68468L1.68468 290.079L37.3777 290.08Z" fill="#87FF4F" stroke="#87FF4F"/>
<path d="M38.063 203.16L38.063 240.223H1L1 203.16H38.063ZM37.3777 239.538L37.3777 203.845H1.68468L1.68468 239.538H37.3777Z" fill="#87FF4F" stroke="#87FF4F"/>
<g opacity="0.5">
<mask id="mask0_195_7062" style="mask-type:luminance" maskUnits="userSpaceOnUse" x="7" y="209" width="25" height="26">
<path d="M7.69336 209.848L7.69336 233.532H31.3768L31.3768 209.848H7.69336Z" fill="white" stroke="white"/>
</mask>
<g mask="url(#mask0_195_7062)">
<path d="M7.69336 209.849L7.69336 233.535H31.3787L31.3787 209.849H7.69336Z" fill="#87FF4F" stroke="#87FF4F"/>
</g>
</g>
<g opacity="0.5">
<mask id="mask1_195_7062" style="mask-type:luminance" maskUnits="userSpaceOnUse" x="55" y="360" width="26" height="26">
<path d="M56.0498 361.467V385.151H79.7332V361.467H56.0498Z" fill="white" stroke="white"/>
</mask>
<g mask="url(#mask1_195_7062)">
<path d="M56.0459 361.467V385.152H79.7312V361.467H56.0459Z" fill="#87FF4F" stroke="#87FF4F"/>
</g>
</g>
<g opacity="0.5">
<mask id="mask2_195_7062" style="mask-type:luminance" maskUnits="userSpaceOnUse" x="55" y="57" width="26" height="26">
<path d="M56.0498 58.232V81.9136H79.7332V58.232H56.0498Z" fill="white" stroke="white"/>
</mask>
<g mask="url(#mask2_195_7062)">
<path d="M56.0459 58.2322V81.9175H79.7312V58.2322H56.0459Z" fill="#87FF4F" stroke="#87FF4F"/>
</g>
</g>
<g opacity="0.5">
<mask id="mask3_195_7062" style="mask-type:luminance" maskUnits="userSpaceOnUse" x="55" y="108" width="26" height="25">
<path d="M56.0498 108.77V132.454H79.7332V108.77H56.0498Z" fill="white" stroke="white"/>
</mask>
<g mask="url(#mask3_195_7062)">
<path d="M56.0459 108.77V132.456H79.7312V108.77H56.0459Z" fill="#87FF4F" stroke="#87FF4F"/>
</g>
</g>
<path d="M38.063 152.622L38.063 189.685H1L1 152.622H38.063ZM37.3777 189L37.3777 153.307H1.68468L1.68468 189H37.3777Z" fill="#87FF4F" stroke="#87FF4F"/>
<path d="M38.063 102.08L38.063 139.149H1L1 102.08H38.063ZM37.3777 138.459L37.3777 102.765H1.68468L1.68468 138.459H37.3777Z" fill="#87FF4F" stroke="#87FF4F"/>
<path d="M38.063 51.542L38.063 88.6025H1L1 51.5395L38.063 51.542ZM37.3777 87.9204L37.3777 52.2267L1.68468 52.2267L1.68468 87.9172L37.3777 87.9204Z" fill="#87FF4F" stroke="#87FF4F"/>
<path d="M38.063 1.0002L38.063 38.0688L1 38.0688L1 1.0002L38.063 1.0002ZM37.3777 37.3786L37.3777 1.68488L1.68468 1.68488L1.68468 37.3786L37.3777 37.3786Z" fill="#87FF4F" stroke="#87FF4F"/>
<path d="M86.4202 405.318V442.381H49.3516L49.3516 405.318H86.4202ZM85.7349 441.697V406.003H50.0418L50.0418 441.697H85.7349Z" fill="#87FF4F" stroke="#87FF4F"/>
<path d="M86.4202 354.779V391.848H49.3516L49.3516 354.779H86.4202ZM85.7349 391.163V355.465H50.0418L50.0418 391.159L85.7349 391.163Z" fill="#87FF4F" stroke="#87FF4F"/>
<path d="M86.4202 304.239V341.302H49.3516L49.3516 304.239H86.4202ZM85.7349 340.617V304.923H50.0418L50.0418 340.617H85.7349Z" fill="#87FF4F" stroke="#87FF4F"/>
<path d="M86.4202 253.697V290.764H49.3516L49.3516 253.695L86.4202 253.697ZM85.7349 290.08V254.387H50.0418L50.0418 290.079L85.7349 290.08Z" fill="#87FF4F" stroke="#87FF4F"/>
<path d="M86.4202 203.16V240.223H49.3516L49.3516 203.16H86.4202ZM85.7349 239.538V203.845H50.0418L50.0418 239.538H85.7349Z" fill="#87FF4F" stroke="#87FF4F"/>
<path d="M86.4202 152.622V189.685H49.3516L49.3516 152.622H86.4202ZM85.7349 189V153.307H50.0418L50.0418 189H85.7349Z" fill="#87FF4F" stroke="#87FF4F"/>
<path d="M86.4202 102.08V139.149H49.3516L49.3516 102.08H86.4202ZM85.7349 138.459V102.765H50.0418L50.0418 138.459H85.7349Z" fill="#87FF4F" stroke="#87FF4F"/>
<path d="M86.4202 51.542V88.6025H49.3516L49.3516 51.5395L86.4202 51.542ZM85.7349 87.9204V52.2267L50.0418 52.2267L50.0418 87.9172L85.7349 87.9204Z" fill="#87FF4F" stroke="#87FF4F"/>
<path d="M86.4202 1.0002V38.0688L49.3516 38.0688L49.3516 1.0002L86.4202 1.0002ZM85.7349 37.3786V1.68488L50.0418 1.68488L50.0418 37.3786L85.7349 37.3786Z" fill="#87FF4F" stroke="#87FF4F"/>
<path d="M37.9653 391.256L37.4819 391.744L1.10352 355.36L1.58759 354.873L37.9653 391.256Z" fill="#87FF4F" stroke="#87FF4F"/>
<path d="M49.458 340.717L49.9443 341.204L86.3241 304.824L85.8378 304.337L49.458 340.717Z" fill="#87FF4F" stroke="#87FF4F"/>
<path d="M37.9666 52.128L1.58759 88.5063L1.10352 88.0192L37.4825 51.6389L37.9666 52.128Z" fill="#87FF4F" stroke="#87FF4F"/>
<path d="M37.9653 37.4796L37.4819 37.9668L1.10352 1.58345L1.58759 1.09564L37.9653 37.4796Z" fill="#87FF4F" stroke="#87FF4F"/>
</svg>
