<svg width="255" height="11" viewBox="0 0 255 11" fill="none" xmlns="http://www.w3.org/2000/svg">
<path d="M251.551 0.0300303L254.411 4.35003L243.521 10.69L229.021 10.69L239.681 0.0300298L251.551 0.0300303Z" fill="#87FF4F"/>
<path d="M228.65 0.0300013L231.31 1.47863e-06L220.62 10.69L206.12 10.69L216.78 0.0300006L228.65 0.0300013Z" fill="#87FF4F"/>
<path d="M205.74 0.0300013L208.41 1.47863e-06L197.72 10.69L183.22 10.69L193.88 0.0300006L205.74 0.0300013Z" fill="#87FF4F"/>
<path d="M182.84 0.0300013L185.51 1.47863e-06L174.82 10.69L160.32 10.69L170.98 0.0300006L182.84 0.0300013Z" fill="#87FF4F"/>
<path d="M159.94 0.0300013L162.61 1.47922e-06L151.91 10.69L137.41 10.69L148.07 0.0300006L159.94 0.0300013Z" fill="#87FF4F"/>
<path d="M137.04 0.0300013L139.7 1.47863e-06L129.01 10.69L114.51 10.69L125.17 0.0300006L137.04 0.0300013Z" fill="#87FF4F"/>
<path d="M114.13 0.0300013L116.81 1.47921e-06L106.11 10.69L91.6104 10.69L102.27 0.0300006L114.13 0.0300013Z" fill="#87FF4F"/>
<path d="M91.23 0.0300013L93.9 1.47863e-06L83.21 10.69L68.71 10.69L79.37 0.0300006L91.23 0.0300013Z" fill="#87FF4F"/>
<path d="M68.3306 0.0300013L71.0005 1.47863e-06L60.3105 10.69L45.8105 10.69L56.4706 0.0300006L68.3306 0.0300013Z" fill="#87FF4F"/>
<path d="M45.4304 0.0300013L48.1004 1.47922e-06L37.4004 10.69L22.9004 10.69L33.5604 0.0300006L45.4304 0.0300013Z" fill="#87FF4F"/>
<path d="M22.53 0.0300013L25.19 1.47863e-06L14.5 10.69L-3.47966e-07 10.69L10.66 0.0300006L22.53 0.0300013Z" fill="#87FF4F"/>
</svg>
