<svg id="visual" viewBox="0 0 9999 600" width="9999" height="600" xmlns="http://www.w3.org/2000/svg" xmlns:xlink="http://www.w3.org/1999/xlink" version="1.1"><path d="M0 325L79.3 316.7C158.7 308.3 317.3 291.7 476 283.5C634.7 275.3 793.3 275.7 952 277.5C1110.7 279.3 1269.3 282.7 1428.2 288.7C1587 294.7 1746 303.3 1904.8 317.3C2063.7 331.3 2222.3 350.7 2381 339.5C2539.7 328.3 2698.3 286.7 2857 287.2C3015.7 287.7 3174.3 330.3 3333 331.7C3491.7 333 3650.3 293 3809 297.5C3967.7 302 4126.3 351 4285 351.5C4443.7 352 4602.3 304 4761.2 301.3C4920 298.7 5079 341.3 5237.8 355.5C5396.7 369.7 5555.3 355.3 5714 361C5872.7 366.7 6031.3 392.3 6190 402.2C6348.7 412 6507.3 406 6666 403C6824.7 400 6983.3 400 7142 376.7C7300.7 353.3 7459.3 306.7 7618 290.7C7776.7 274.7 7935.3 289.3 8094.2 313C8253 336.7 8412 369.3 8570.8 382C8729.7 394.7 8888.3 387.3 9047 383.2C9205.7 379 9364.3 378 9523 373.3C9681.7 368.7 9840.3 360.3 9919.7 356.2L9999 352L9999 601L9919.7 601C9840.3 601 9681.7 601 9523 601C9364.3 601 9205.7 601 9047 601C8888.3 601 8729.7 601 8570.8 601C8412 601 8253 601 8094.2 601C7935.3 601 7776.7 601 7618 601C7459.3 601 7300.7 601 7142 601C6983.3 601 6824.7 601 6666 601C6507.3 601 6348.7 601 6190 601C6031.3 601 5872.7 601 5714 601C5555.3 601 5396.7 601 5237.8 601C5079 601 4920 601 4761.2 601C4602.3 601 4443.7 601 4285 601C4126.3 601 3967.7 601 3809 601C3650.3 601 3491.7 601 3333 601C3174.3 601 3015.7 601 2857 601C2698.3 601 2539.7 601 2381 601C2222.3 601 2063.7 601 1904.8 601C1746 601 1587 601 1428.2 601C1269.3 601 1110.7 601 952 601C793.3 601 634.7 601 476 601C317.3 601 158.7 601 79.3 601L0 601Z" fill="#5d1d90"></path><path d="M0 452L79.3 434C158.7 416 317.3 380 476 381.5C634.7 383 793.3 422 952 419.5C1110.7 417 1269.3 373 1428.2 373.7C1587 374.3 1746 419.7 1904.8 431.3C2063.7 443 2222.3 421 2381 414.8C2539.7 408.7 2698.3 418.3 2857 411.2C3015.7 404 3174.3 380 3333 382C3491.7 384 3650.3 412 3809 417.8C3967.7 423.7 4126.3 407.3 4285 399.7C4443.7 392 4602.3 393 4761.2 405.7C4920 418.3 5079 442.7 5237.8 432.5C5396.7 422.3 5555.3 377.7 5714 376.8C5872.7 376 6031.3 419 6190 438.8C6348.7 458.7 6507.3 455.3 6666 452.7C6824.7 450 6983.3 448 7142 448.7C7300.7 449.3 7459.3 452.7 7618 431.3C7776.7 410 7935.3 364 8094.2 366.5C8253 369 8412 420 8570.8 423.7C8729.7 427.3 8888.3 383.7 9047 380.3C9205.7 377 9364.3 414 9523 411.7C9681.7 409.3 9840.3 367.7 9919.7 346.8L9999 326L9999 601L9919.7 601C9840.3 601 9681.7 601 9523 601C9364.3 601 9205.7 601 9047 601C8888.3 601 8729.7 601 8570.8 601C8412 601 8253 601 8094.2 601C7935.3 601 7776.7 601 7618 601C7459.3 601 7300.7 601 7142 601C6983.3 601 6824.7 601 6666 601C6507.3 601 6348.7 601 6190 601C6031.3 601 5872.7 601 5714 601C5555.3 601 5396.7 601 5237.8 601C5079 601 4920 601 4761.2 601C4602.3 601 4443.7 601 4285 601C4126.3 601 3967.7 601 3809 601C3650.3 601 3491.7 601 3333 601C3174.3 601 3015.7 601 2857 601C2698.3 601 2539.7 601 2381 601C2222.3 601 2063.7 601 1904.8 601C1746 601 1587 601 1428.2 601C1269.3 601 1110.7 601 952 601C793.3 601 634.7 601 476 601C317.3 601 158.7 601 79.3 601L0 601Z" fill="#3a267b"></path><path d="M0 493L79.3 475C158.7 457 317.3 421 476 413.3C634.7 405.7 793.3 426.3 952 430.7C1110.7 435 1269.3 423 1428.2 408.8C1587 394.7 1746 378.3 1904.8 378.8C2063.7 379.3 2222.3 396.7 2381 403C2539.7 409.3 2698.3 404.7 2857 408.2C3015.7 411.7 3174.3 423.3 3333 442.3C3491.7 461.3 3650.3 487.7 3809 489.3C3967.7 491 4126.3 468 4285 457.5C4443.7 447 4602.3 449 4761.2 443.2C4920 437.3 5079 423.7 5237.8 423.5C5396.7 423.3 5555.3 436.7 5714 430.8C5872.7 425 6031.3 400 6190 399.5C6348.7 399 6507.3 423 6666 421.7C6824.7 420.3 6983.3 393.7 7142 383.5C7300.7 373.3 7459.3 379.7 7618 397C7776.7 414.3 7935.3 442.7 8094.2 442.3C8253 442 8412 413 8570.8 402C8729.7 391 8888.3 398 9047 403.3C9205.7 408.7 9364.3 412.3 9523 426.7C9681.7 441 9840.3 466 9919.7 478.5L9999 491L9999 601L9919.7 601C9840.3 601 9681.7 601 9523 601C9364.3 601 9205.7 601 9047 601C8888.3 601 8729.7 601 8570.8 601C8412 601 8253 601 8094.2 601C7935.3 601 7776.7 601 7618 601C7459.3 601 7300.7 601 7142 601C6983.3 601 6824.7 601 6666 601C6507.3 601 6348.7 601 6190 601C6031.3 601 5872.7 601 5714 601C5555.3 601 5396.7 601 5237.8 601C5079 601 4920 601 4761.2 601C4602.3 601 4443.7 601 4285 601C4126.3 601 3967.7 601 3809 601C3650.3 601 3491.7 601 3333 601C3174.3 601 3015.7 601 2857 601C2698.3 601 2539.7 601 2381 601C2222.3 601 2063.7 601 1904.8 601C1746 601 1587 601 1428.2 601C1269.3 601 1110.7 601 952 601C793.3 601 634.7 601 476 601C317.3 601 158.7 601 79.3 601L0 601Z" fill="#1f2561"></path><path d="M0 516L79.3 521.3C158.7 526.7 317.3 537.3 476 537.2C634.7 537 793.3 526 952 515.8C1110.7 505.7 1269.3 496.3 1428.2 501C1587 505.7 1746 524.3 1904.8 516.3C2063.7 508.3 2222.3 473.7 2381 458.8C2539.7 444 2698.3 449 2857 467.5C3015.7 486 3174.3 518 3333 516.2C3491.7 514.3 3650.3 478.7 3809 463C3967.7 447.3 4126.3 451.7 4285 468.2C4443.7 484.7 4602.3 513.3 4761.2 526C4920 538.7 5079 535.3 5237.8 533.7C5396.7 532 5555.3 532 5714 528.3C5872.7 524.7 6031.3 517.3 6190 509.8C6348.7 502.3 6507.3 494.7 6666 484.3C6824.7 474 6983.3 461 7142 462C7300.7 463 7459.3 478 7618 479.3C7776.7 480.7 7935.3 468.3 8094.2 468.5C8253 468.7 8412 481.3 8570.8 491.2C8729.7 501 8888.3 508 9047 509.5C9205.7 511 9364.3 507 9523 502.2C9681.7 497.3 9840.3 491.7 9919.7 488.8L9999 486L9999 601L9919.7 601C9840.3 601 9681.7 601 9523 601C9364.3 601 9205.7 601 9047 601C8888.3 601 8729.7 601 8570.8 601C8412 601 8253 601 8094.2 601C7935.3 601 7776.7 601 7618 601C7459.3 601 7300.7 601 7142 601C6983.3 601 6824.7 601 6666 601C6507.3 601 6348.7 601 6190 601C6031.3 601 5872.7 601 5714 601C5555.3 601 5396.7 601 5237.8 601C5079 601 4920 601 4761.2 601C4602.3 601 4443.7 601 4285 601C4126.3 601 3967.7 601 3809 601C3650.3 601 3491.7 601 3333 601C3174.3 601 3015.7 601 2857 601C2698.3 601 2539.7 601 2381 601C2222.3 601 2063.7 601 1904.8 601C1746 601 1587 601 1428.2 601C1269.3 601 1110.7 601 952 601C793.3 601 634.7 601 476 601C317.3 601 158.7 601 79.3 601L0 601Z" fill="#122044"></path><path d="M0 565L79.3 564.3C158.7 563.7 317.3 562.3 476 549.5C634.7 536.7 793.3 512.3 952 506.3C1110.7 500.3 1269.3 512.7 1428.2 519.2C1587 525.7 1746 526.3 1904.8 537.3C2063.7 548.3 2222.3 569.7 2381 566.3C2539.7 563 2698.3 535 2857 523.2C3015.7 511.3 3174.3 515.7 3333 529.3C3491.7 543 3650.3 566 3809 577C3967.7 588 4126.3 587 4285 584.8C4443.7 582.7 4602.3 579.3 4761.2 565C4920 550.7 5079 525.3 5237.8 526.3C5396.7 527.3 5555.3 554.7 5714 561C5872.7 567.3 6031.3 552.7 6190 555.2C6348.7 557.7 6507.3 577.3 6666 578.3C6824.7 579.3 6983.3 561.7 7142 550.3C7300.7 539 7459.3 534 7618 527C7776.7 520 7935.3 511 8094.2 506.8C8253 502.7 8412 503.3 8570.8 518.3C8729.7 533.3 8888.3 562.7 9047 578.3C9205.7 594 9364.3 596 9523 578C9681.7 560 9840.3 522 9919.7 503L9999 484L9999 601L9919.7 601C9840.3 601 9681.7 601 9523 601C9364.3 601 9205.7 601 9047 601C8888.3 601 8729.7 601 8570.8 601C8412 601 8253 601 8094.2 601C7935.3 601 7776.7 601 7618 601C7459.3 601 7300.7 601 7142 601C6983.3 601 6824.7 601 6666 601C6507.3 601 6348.7 601 6190 601C6031.3 601 5872.7 601 5714 601C5555.3 601 5396.7 601 5237.8 601C5079 601 4920 601 4761.2 601C4602.3 601 4443.7 601 4285 601C4126.3 601 3967.7 601 3809 601C3650.3 601 3491.7 601 3333 601C3174.3 601 3015.7 601 2857 601C2698.3 601 2539.7 601 2381 601C2222.3 601 2063.7 601 1904.8 601C1746 601 1587 601 1428.2 601C1269.3 601 1110.7 601 952 601C793.3 601 634.7 601 476 601C317.3 601 158.7 601 79.3 601L0 601Z" fill="#111827"></path></svg>