<?xml version="1.0" encoding="utf-8"?>
<!-- Generator: Adobe Illustrator 27.2.0, SVG Export Plug-In . SVG Version: 6.00 Build 0)  -->
<svg version="1.1" id="Ebene_1" xmlns="http://www.w3.org/2000/svg" xmlns:xlink="http://www.w3.org/1999/xlink" x="0px" y="0px"
	 viewBox="0 0 512 512" style="enable-background:new 0 0 512 512;" xml:space="preserve">
<style type="text/css">
	.st0{clip-path:url(#SVGID_00000016070938933468239670000006079526231056843152_);}
	.st1{fill:#88FF4E;}
	.st2{clip-path:url(#SVGID_00000163767563237052869420000007150557848002670480_);}
	.st3{opacity:0.5;}
	.st4{clip-path:url(#SVGID_00000127722823273152427880000008761521903075991445_);}
	.st5{clip-path:url(#SVGID_00000181074627408167290460000001959372445483531447_);}
	.st6{clip-path:url(#SVGID_00000014598746189213987850000009493441367990926472_);}
	.st7{clip-path:url(#SVGID_00000078043636430549420630000003351892227683794366_);}
	.st8{clip-path:url(#SVGID_00000109747433153490192810000009975379954578260637_);}
	.st9{clip-path:url(#SVGID_00000166670291649640765520000016004751651821546382_);}
	.st10{clip-path:url(#SVGID_00000106861430840409124300000010083547964505926548_);}
	.st11{clip-path:url(#SVGID_00000119086314871224060630000013866143304330070702_);}
</style>
<g>
	<defs>
		<rect id="SVGID_1_" x="2.97" y="147.91" width="506.91" height="245.66"/>
	</defs>
	<clipPath id="SVGID_00000080192776121745668270000000726206939213931412_">
		<use xlink:href="#SVGID_1_"  style="overflow:visible;"/>
	</clipPath>
	<g id="Gruppe_8133" style="clip-path:url(#SVGID_00000080192776121745668270000000726206939213931412_);">
		<path id="Pfad_3828" class="st1" d="M77.07,221.77h-36.2v-36.2h36.2V221.77z M41.53,221.1H76.4v-34.86H41.53V221.1z"/>
		<path id="Pfad_3829" class="st1" d="M126.43,221.77H90.22v-36.2h36.21V221.77z M90.89,221.1h34.87v-34.86H90.9L90.89,221.1z"/>
		<path id="Pfad_3830" class="st1" d="M175.8,221.77h-36.2v-36.2h36.2V221.77z M140.26,221.1h34.86v-34.86h-34.86V221.1z"/>
		<path id="Pfad_3831" class="st1" d="M225.16,221.77h-36.2v-36.2h36.21L225.16,221.77z M189.63,221.1h34.86v-34.86h-34.86
			L189.63,221.1z"/>
		<path id="Pfad_3832" class="st1" d="M274.53,221.77h-36.2v-36.2h36.2V221.77z M238.99,221.1h34.86v-34.86h-34.86V221.1z"/>
		<g id="Gruppe_8132" transform="translate(0 0.002)">
			<g>
				<defs>
					<rect id="SVGID_00000136376976662139605350000004243504099768596366_" x="2.97" y="147.91" width="506.91" height="245.65"/>
				</defs>
				<clipPath id="SVGID_00000147933884595499770350000010980906101283933610_">
					<use xlink:href="#SVGID_00000136376976662139605350000004243504099768596366_"  style="overflow:visible;"/>
				</clipPath>
				<g id="Gruppe_8131" style="clip-path:url(#SVGID_00000147933884595499770350000010980906101283933610_);">
					<g id="Gruppe_8109" transform="translate(397.504 72.621)" class="st3">
						<g id="Gruppe_8108">
							<g>
								<defs>
									
										<rect id="SVGID_00000020374291699317926560000016908153926711807114_" x="-152.65" y="119.48" width="23.13" height="23.13"/>
								</defs>
								<clipPath id="SVGID_00000037670629055627300310000010851074563419828372_">
									<use xlink:href="#SVGID_00000020374291699317926560000016908153926711807114_"  style="overflow:visible;"/>
								</clipPath>
								<g id="Gruppe_8107" style="clip-path:url(#SVGID_00000037670629055627300310000010851074563419828372_);">
									<rect id="Rechteck_2886" x="-152.65" y="119.48" class="st1" width="23.13" height="23.13"/>
								</g>
							</g>
						</g>
					</g>
					<g id="Gruppe_8112" transform="translate(154.136 150.239)" class="st3">
						<g id="Gruppe_8111">
							<g>
								<defs>
									<rect id="SVGID_00000047037875253800662580000015497076710804052103_" x="-57.37" y="89.1" width="23.13" height="23.13"/>
								</defs>
								<clipPath id="SVGID_00000174569605011312586900000000294061834364085669_">
									<use xlink:href="#SVGID_00000047037875253800662580000015497076710804052103_"  style="overflow:visible;"/>
								</clipPath>
								<g id="Gruppe_8110" style="clip-path:url(#SVGID_00000174569605011312586900000000294061834364085669_);">
									<rect id="Rechteck_2888" x="-57.37" y="89.09" class="st1" width="23.13" height="23.13"/>
								</g>
							</g>
						</g>
					</g>
					<g id="Gruppe_8115" transform="translate(316.381 227.857)" class="st3">
						<g id="Gruppe_8114">
							<g>
								<defs>
									
										<rect id="SVGID_00000135688431639299937170000007346347652451939239_" x="-120.89" y="58.71" width="23.13" height="23.13"/>
								</defs>
								<clipPath id="SVGID_00000125589358876325466210000005389395072775067832_">
									<use xlink:href="#SVGID_00000135688431639299937170000007346347652451939239_"  style="overflow:visible;"/>
								</clipPath>
								<g id="Gruppe_8113" style="clip-path:url(#SVGID_00000125589358876325466210000005389395072775067832_);">
									<rect id="Rechteck_2890" x="-120.89" y="58.71" class="st1" width="23.13" height="23.13"/>
								</g>
							</g>
						</g>
					</g>
					<g id="Gruppe_8118" transform="translate(640.872 150.239)" class="st3">
						<g id="Gruppe_8117">
							<g>
								<defs>
									
										<rect id="SVGID_00000024689913002236447930000005258851406536164286_" x="-247.92" y="89.1" width="23.13" height="23.13"/>
								</defs>
								<clipPath id="SVGID_00000153684854564780848410000014974417423019355303_">
									<use xlink:href="#SVGID_00000024689913002236447930000005258851406536164286_"  style="overflow:visible;"/>
								</clipPath>
								<g id="Gruppe_8116" style="clip-path:url(#SVGID_00000153684854564780848410000014974417423019355303_);">
									<rect id="Rechteck_2892" x="-247.92" y="89.09" class="st1" width="23.13" height="23.13"/>
								</g>
							</g>
						</g>
					</g>
					<g id="Gruppe_8121" transform="translate(559.748 150.239)" class="st3">
						<g id="Gruppe_8120">
							<g>
								<defs>
									
										<rect id="SVGID_00000098188267516905109630000007171589334581638296_" x="-216.16" y="89.1" width="23.13" height="23.13"/>
								</defs>
								<clipPath id="SVGID_00000018222693076069731330000002865997672602215090_">
									<use xlink:href="#SVGID_00000098188267516905109630000007171589334581638296_"  style="overflow:visible;"/>
								</clipPath>
								<g id="Gruppe_8119" style="clip-path:url(#SVGID_00000018222693076069731330000002865997672602215090_);">
									<rect id="Rechteck_2894" x="-216.16" y="89.09" class="st1" width="23.13" height="23.13"/>
								</g>
							</g>
						</g>
					</g>
					<g id="Gruppe_8124" transform="translate(73.014 306.342)" class="st3">
						<g id="Gruppe_8123">
							<g>
								<defs>
									
										<rect id="SVGID_00000027582618816198142970000014456154995580832140_" x="-25.61" y="27.98" width="23.13" height="23.13"/>
								</defs>
								<clipPath id="SVGID_00000172426019802073754930000003165153443945222558_">
									<use xlink:href="#SVGID_00000027582618816198142970000014456154995580832140_"  style="overflow:visible;"/>
								</clipPath>
								<g id="Gruppe_8122" style="clip-path:url(#SVGID_00000172426019802073754930000003165153443945222558_);">
									<rect id="Rechteck_2896" x="-25.61" y="27.98" class="st1" width="23.13" height="23.13"/>
								</g>
							</g>
						</g>
					</g>
					<g id="Gruppe_8127" transform="translate(559.748 306.342)" class="st3">
						<g id="Gruppe_8126">
							<g>
								<defs>
									
										<rect id="SVGID_00000011008777541902841380000008003994299175455133_" x="-216.16" y="27.98" width="23.13" height="23.13"/>
								</defs>
								<clipPath id="SVGID_00000178922448937595018860000002334157728239528878_">
									<use xlink:href="#SVGID_00000011008777541902841380000008003994299175455133_"  style="overflow:visible;"/>
								</clipPath>
								<g id="Gruppe_8125" style="clip-path:url(#SVGID_00000178922448937595018860000002334157728239528878_);">
									<rect id="Rechteck_2898" x="-216.16" y="27.98" class="st1" width="23.13" height="23.13"/>
								</g>
							</g>
						</g>
					</g>
					<g id="Gruppe_8130" transform="translate(640.872 306.342)" class="st3">
						<g id="Gruppe_8129">
							<g>
								<defs>
									
										<rect id="SVGID_00000111173726428631405480000015584104056485634461_" x="-247.92" y="27.98" width="23.13" height="23.13"/>
								</defs>
								<clipPath id="SVGID_00000167369623825732522550000014006159670689936305_">
									<use xlink:href="#SVGID_00000111173726428631405480000015584104056485634461_"  style="overflow:visible;"/>
								</clipPath>
								<g id="Gruppe_8128" style="clip-path:url(#SVGID_00000167369623825732522550000014006159670689936305_);">
									<rect id="Rechteck_2900" x="-247.92" y="27.98" class="st1" width="23.13" height="23.13"/>
								</g>
							</g>
						</g>
					</g>
				</g>
			</g>
		</g>
		<path id="Pfad_3833" class="st1" d="M323.89,221.77h-36.2v-36.2h36.2V221.77z M288.36,221.1h34.86v-34.86h-34.86V221.1z"/>
		<path id="Pfad_3834" class="st1" d="M373.25,221.77h-36.21v-36.2h36.21V221.77z M337.72,221.1h34.86v-34.86h-34.86V221.1z"/>
		<path id="Pfad_3835" class="st1" d="M422.62,221.77h-36.2v-36.2h36.2L422.62,221.77z M387.09,221.1h34.86v-34.86h-34.86
			L387.09,221.1z"/>
		<path id="Pfad_3836" class="st1" d="M471.98,221.77h-36.21v-36.2h36.21V221.77z M436.45,221.1h34.86v-34.86h-34.86L436.45,221.1z"
			/>
		<path id="Pfad_3837" class="st1" d="M77.07,269h-36.2V232.8h36.2V269z M41.53,268.33H76.4v-34.86H41.53V268.33z"/>
		<path id="Pfad_3838" class="st1" d="M126.43,269H90.22V232.8h36.21V269z M90.89,268.33h34.87v-34.86H90.9L90.89,268.33z"/>
		<path id="Pfad_3839" class="st1" d="M175.8,269h-36.2V232.8h36.2V269z M140.26,268.33h34.86v-34.86h-34.86V268.33z"/>
		<path id="Pfad_3840" class="st1" d="M225.16,269h-36.2V232.8h36.21L225.16,269z M189.63,268.33h34.86v-34.86h-34.86L189.63,268.33
			z"/>
		<path id="Pfad_3841" class="st1" d="M274.53,269h-36.2V232.8h36.2V269z M238.99,268.33h34.86v-34.86h-34.86V268.33z"/>
		<path id="Pfad_3842" class="st1" d="M323.89,269h-36.2V232.8h36.2V269z M288.36,268.33h34.86v-34.86h-34.86V268.33z"/>
		<path id="Pfad_3843" class="st1" d="M373.25,269h-36.21V232.8h36.21V269z M337.72,268.33h34.86v-34.86h-34.86V268.33z"/>
		<path id="Pfad_3844" class="st1" d="M422.62,269h-36.2V232.8h36.2L422.62,269z M387.09,268.33h34.86v-34.86h-34.86L387.09,268.33z
			"/>
		<path id="Pfad_3845" class="st1" d="M471.98,269h-36.21V232.8h36.21V269z M436.45,268.33h34.86v-34.86h-34.86L436.45,268.33z"/>
		<path id="Pfad_3846" class="st1" d="M77.07,316.24h-36.2v-36.21h36.2V316.24z M41.53,315.57H76.4V280.7H41.53V315.57z"/>
		<path id="Pfad_3847" class="st1" d="M126.43,316.24H90.22v-36.21h36.21V316.24z M90.89,315.57h34.87V280.7H90.9L90.89,315.57z"/>
		<path id="Pfad_3848" class="st1" d="M175.8,316.24h-36.2v-36.21h36.2V316.24z M140.26,315.57h34.86V280.7h-34.86V315.57z"/>
		<path id="Pfad_3849" class="st1" d="M225.16,316.24h-36.2v-36.21h36.21L225.16,316.24z M189.63,315.57h34.86V280.7h-34.86
			L189.63,315.57z"/>
		<path id="Pfad_3850" class="st1" d="M274.53,316.24h-36.2v-36.21h36.2V316.24z M238.99,315.57h34.86V280.7h-34.86V315.57z"/>
		<path id="Pfad_3851" class="st1" d="M323.89,316.24h-36.2v-36.21h36.2V316.24z M288.36,315.57h34.86V280.7h-34.86V315.57z"/>
		<path id="Pfad_3852" class="st1" d="M373.25,316.24h-36.21v-36.21h36.21V316.24z M337.72,315.57h34.86V280.7h-34.86V315.57z"/>
		<path id="Pfad_3853" class="st1" d="M422.62,316.24h-36.2v-36.21h36.2L422.62,316.24z M387.09,315.57h34.86V280.7h-34.86
			L387.09,315.57z"/>
		<path id="Pfad_3854" class="st1" d="M471.98,316.24h-36.21v-36.21h36.21V316.24z M436.45,315.57h34.86V280.7h-34.86L436.45,315.57
			z"/>
		<path id="Pfad_3855" class="st1" d="M77.07,363.47h-36.2v-36.2h36.2V363.47z M41.53,362.8H76.4v-34.86H41.53V362.8z"/>
		<path id="Pfad_3856" class="st1" d="M126.43,363.47H90.22v-36.2h36.21V363.47z M90.89,362.8h34.87v-34.86H90.9L90.89,362.8z"/>
		<path id="Pfad_3857" class="st1" d="M175.8,363.47h-36.2v-36.2h36.2V363.47z M140.26,362.8h34.86v-34.86h-34.86V362.8z"/>
		<path id="Pfad_3858" class="st1" d="M225.16,363.47h-36.2v-36.2h36.21L225.16,363.47z M189.63,362.8h34.86v-34.86h-34.86
			L189.63,362.8z"/>
		<path id="Pfad_3859" class="st1" d="M274.53,363.47h-36.2v-36.2h36.2V363.47z M238.99,362.8h34.86v-34.86h-34.86V362.8z"/>
		<path id="Pfad_3860" class="st1" d="M323.89,363.47h-36.2v-36.2h36.2V363.47z M288.36,362.8h34.86v-34.86h-34.86V362.8z"/>
		<path id="Pfad_3861" class="st1" d="M373.25,363.47h-36.21v-36.2h36.21V363.47z M337.72,362.8h34.86v-34.86h-34.86V362.8z"/>
		<path id="Pfad_3862" class="st1" d="M422.62,363.47h-36.2v-36.2h36.2L422.62,363.47z M387.09,362.8h34.86v-34.86h-34.86V362.8z"/>
		<path id="Pfad_3863" class="st1" d="M471.98,363.47h-36.21v-36.2h36.21V363.47z M436.45,362.8h34.86v-34.86h-34.86L436.45,362.8z"
			/>
		<path id="Pfad_3864" class="st1" d="M90.8,221.68l-0.48-0.47l35.54-35.53l0.48,0.47L90.8,221.68z"/>
		
			<rect id="Rechteck_2903" x="157.36" y="225.78" transform="matrix(0.7071 -0.7071 0.7071 0.7071 -131.2281 184.9953)" class="st1" width="0.67" height="50.25"/>
		
			<rect id="Rechteck_2904" x="231.3" y="297.8" transform="matrix(0.7044 -0.7098 0.7098 0.7044 -135.8194 270.1544)" class="st1" width="50.25" height="0.67"/>
		
			<rect id="Rechteck_2905" x="330.03" y="297.8" transform="matrix(0.7044 -0.7098 0.7098 0.7044 -106.6325 340.2347)" class="st1" width="50.26" height="0.67"/>
		<path id="Pfad_3865" class="st1" d="M422.05,221.68l-35.53-35.53l0.48-0.47l35.53,35.53L422.05,221.68z"/>
		<path id="Pfad_3866" class="st1" d="M436.35,221.68l-0.48-0.47l35.54-35.53l0.48,0.47L436.35,221.68z"/>
		<path id="Pfad_3867" class="st1" d="M175.22,363.37l-35.53-35.53l0.48-0.47l35.53,35.53L175.22,363.37z"/>
		<path id="Pfad_3868" class="st1" d="M140.17,363.37l-0.48-0.47l35.53-35.53l0.48,0.47L140.17,363.37z"/>
		
			<rect id="Rechteck_2906" x="107.99" y="273.01" transform="matrix(0.7071 -0.7071 0.7071 0.7071 -179.0917 163.938)" class="st1" width="0.67" height="50.26"/>
		<rect id="Rechteck_2907" x="27.31" y="201.14" class="st1" width="5.05" height="5.05"/>
		<rect id="Rechteck_2908" x="19.28" y="201.14" class="st1" width="5.05" height="5.05"/>
		<rect id="Rechteck_2909" x="27.31" y="248.38" class="st1" width="5.05" height="5.05"/>
		<rect id="Rechteck_2910" x="19.28" y="248.38" class="st1" width="5.05" height="5.05"/>
		<rect id="Rechteck_2911" x="27.31" y="295.61" class="st1" width="5.05" height="5.05"/>
		<rect id="Rechteck_2912" x="19.28" y="295.61" class="st1" width="5.05" height="5.05"/>
		<rect id="Rechteck_2913" x="27.31" y="342.84" class="st1" width="5.05" height="5.05"/>
		<rect id="Rechteck_2914" x="19.28" y="342.84" class="st1" width="5.05" height="5.05"/>
		<rect id="Rechteck_2915" x="491.14" y="201.14" class="st1" width="5.05" height="5.05"/>
		<rect id="Rechteck_2916" x="483.11" y="201.14" class="st1" width="5.05" height="5.05"/>
		<rect id="Rechteck_2917" x="491.14" y="248.38" class="st1" width="5.05" height="5.05"/>
		<rect id="Rechteck_2918" x="483.11" y="248.38" class="st1" width="5.05" height="5.05"/>
		<rect id="Rechteck_2919" x="491.14" y="295.61" class="st1" width="5.05" height="5.05"/>
		<rect id="Rechteck_2920" x="483.11" y="295.61" class="st1" width="5.05" height="5.05"/>
		<rect id="Rechteck_2921" x="491.14" y="342.84" class="st1" width="5.05" height="5.05"/>
		<rect id="Rechteck_2922" x="483.11" y="342.84" class="st1" width="5.05" height="5.05"/>
		<rect id="Rechteck_2923" x="501.98" y="147.91" class="st1" width="7.9" height="2.22"/>
		<rect id="Rechteck_2924" x="487.13" y="147.91" class="st1" width="7.9" height="2.22"/>
		<rect id="Rechteck_2925" x="472.28" y="147.91" class="st1" width="7.9" height="2.22"/>
		<rect id="Rechteck_2926" x="349.18" y="147.91" class="st1" width="23.75" height="2.22"/>
		<rect id="Rechteck_2927" x="156.27" y="147.91" class="st1" width="23.75" height="2.22"/>
		<rect id="Rechteck_2928" x="2.97" y="147.91" class="st1" width="3.84" height="2.22"/>
		<rect id="Rechteck_2929" x="11.09" y="147.91" class="st1" width="3.84" height="2.22"/>
		<rect id="Rechteck_2930" x="128.24" y="147.91" class="st1" width="23.75" height="2.22"/>
		<rect id="Rechteck_2931" x="501.98" y="391.34" class="st1" width="7.9" height="2.22"/>
		<rect id="Rechteck_2932" x="487.13" y="391.34" class="st1" width="7.9" height="2.22"/>
		<rect id="Rechteck_2933" x="472.28" y="391.34" class="st1" width="7.9" height="2.22"/>
		<rect id="Rechteck_2934" x="349.18" y="391.34" class="st1" width="23.75" height="2.22"/>
		<rect id="Rechteck_2935" x="156.27" y="391.34" class="st1" width="23.75" height="2.22"/>
		<rect id="Rechteck_2936" x="2.97" y="391.34" class="st1" width="3.84" height="2.22"/>
		<rect id="Rechteck_2937" x="11.09" y="391.34" class="st1" width="3.84" height="2.22"/>
		<rect id="Rechteck_2938" x="128.24" y="391.34" class="st1" width="23.75" height="2.22"/>
	</g>
</g>
</svg>
