<?xml version="1.0" encoding="utf-8"?>
<!-- Generator: Adobe Illustrator 27.2.0, SVG Export Plug-In . SVG Version: 6.00 Build 0)  -->
<svg version="1.1" id="Ebene_1" xmlns="http://www.w3.org/2000/svg" xmlns:xlink="http://www.w3.org/1999/xlink" x="0px" y="0px"
	 viewBox="0 0 512 512" style="enable-background:new 0 0 512 512;" xml:space="preserve">
<style type="text/css">
	.st0{opacity:0.782;}
	.st1{clip-path:url(#SVGID_00000176757726879921701730000012181957169064864685_);}
	.st2{fill:#88FF4E;}
	.st3{clip-path:url(#SVGID_00000178920716648394168070000017774329662348276867_);}
	.st4{opacity:0.1;}
	.st5{clip-path:url(#SVGID_00000023256416857372429250000001000206513182234521_);}
	.st6{opacity:0.25;}
	.st7{clip-path:url(#SVGID_00000129173199447634114440000008000460019919605684_);}
	.st8{opacity:0.5;}
	.st9{clip-path:url(#SVGID_00000000918351380278688270000003358415515697269898_);}
	.st10{clip-path:url(#SVGID_00000148642585768013308150000002056227698766526396_);}
	.st11{clip-path:url(#SVGID_00000178193456324697186180000004772623190145049012_);}
	.st12{clip-path:url(#SVGID_00000042713378385734471400000011092138554782287493_);}
</style>
<g id="Gruppe_8225" class="st0">
	<g>
		<defs>
			<rect id="SVGID_1_" x="2.4" y="118.97" width="509.47" height="243.75"/>
		</defs>
		<clipPath id="SVGID_00000122692300265456195630000003948828037959485595_">
			<use xlink:href="#SVGID_1_"  style="overflow:visible;"/>
		</clipPath>
		<g id="Gruppe_8224" style="clip-path:url(#SVGID_00000122692300265456195630000003948828037959485595_);">
			<rect id="Rechteck_2970" x="31.15" y="320.83" class="st2" width="460.58" height="0.65"/>
			<rect id="Rechteck_2971" x="31.15" y="323.95" class="st2" width="460.58" height="2.61"/>
			<rect id="Rechteck_2972" x="31.15" y="162.3" class="st2" width="460.58" height="0.65"/>
			<rect id="Rechteck_2973" x="31.15" y="157.22" class="st2" width="460.58" height="2.61"/>
			<rect id="Rechteck_2974" x="37.09" y="250.13" class="st2" width="0.65" height="61.06"/>
			<g id="Gruppe_8223">
				<g>
					<defs>
						<rect id="SVGID_00000023982858631629755500000013459414044685834670_" x="2.4" y="118.97" width="509.47" height="243.75"/>
					</defs>
					<clipPath id="SVGID_00000136382082711845987240000001650731674661174460_">
						<use xlink:href="#SVGID_00000023982858631629755500000013459414044685834670_"  style="overflow:visible;"/>
					</clipPath>
					<g id="Gruppe_8222" style="clip-path:url(#SVGID_00000136382082711845987240000001650731674661174460_);">
						<path id="Pfad_4149" class="st2" d="M37.41,243.95c-0.72,0-1.31-0.58-1.31-1.3c0,0,0,0,0,0v-14.51c0-0.72,0.58-1.3,1.3-1.3
							s1.3,0.58,1.3,1.3v14.51C38.72,243.37,38.14,243.95,37.41,243.95C37.42,243.95,37.41,243.95,37.41,243.95"/>
						<rect id="Rechteck_2975" x="37.09" y="172.58" class="st2" width="0.65" height="47.83"/>
						<rect id="Rechteck_2976" x="48.83" y="232.05" class="st2" width="0.65" height="79.15"/>
						<path id="Pfad_4150" class="st2" d="M49.15,225.86c-0.72,0-1.3-0.58-1.3-1.3c0,0,0,0,0,0v-14.52c0-0.72,0.58-1.3,1.3-1.3
							s1.3,0.58,1.3,1.3v14.52C50.46,225.28,49.87,225.86,49.15,225.86"/>
						<rect id="Rechteck_2977" x="48.83" y="172.58" class="st2" width="0.65" height="29.74"/>
						<rect id="Rechteck_2978" x="60.57" y="255.13" class="st2" width="0.65" height="56.06"/>
						<path id="Pfad_4151" class="st2" d="M60.89,248.95c-0.72,0-1.3-0.58-1.3-1.3c0,0,0,0,0,0v-14.51
							c-0.01-0.72,0.56-1.31,1.28-1.33s1.31,0.56,1.33,1.28c0,0.02,0,0.03,0,0.05v14.51C62.2,248.36,61.62,248.95,60.89,248.95
							C60.89,248.95,60.89,248.95,60.89,248.95"/>
						<rect id="Rechteck_2979" x="60.57" y="172.58" class="st2" width="0.65" height="52.83"/>
						<rect id="Rechteck_2980" x="72.31" y="253.13" class="st2" width="0.65" height="58.06"/>
						<path id="Pfad_4152" class="st2" d="M72.63,246.95c-0.72,0-1.31-0.58-1.31-1.3c0,0,0,0,0,0v-14.51c0-0.72,0.58-1.31,1.31-1.31
							s1.31,0.58,1.31,1.31v14.51C73.94,246.36,73.35,246.95,72.63,246.95C72.63,246.95,72.63,246.95,72.63,246.95"/>
						<rect id="Rechteck_2981" x="72.31" y="172.58" class="st2" width="0.65" height="50.83"/>
						<rect id="Rechteck_2982" x="84.05" y="272.37" class="st2" width="0.65" height="38.83"/>
						<path id="Pfad_4153" class="st2" d="M84.37,266.19c-0.72,0-1.31-0.58-1.31-1.3c0,0,0,0,0,0v-14.51c0-0.72,0.58-1.31,1.31-1.31
							s1.31,0.58,1.31,1.31v14.51C85.68,265.6,85.1,266.18,84.37,266.19C84.38,266.19,84.38,266.19,84.37,266.19"/>
						<rect id="Rechteck_2983" x="84.05" y="172.58" class="st2" width="0.65" height="70.07"/>
						<rect id="Rechteck_2984" x="95.79" y="280.66" class="st2" width="0.65" height="30.53"/>
						<path id="Pfad_4154" class="st2" d="M96.11,274.48c-0.72,0-1.31-0.58-1.31-1.3c0,0,0,0,0,0v-14.51
							c-0.01-0.72,0.56-1.31,1.28-1.33c0.72-0.01,1.31,0.56,1.33,1.28c0,0.02,0,0.03,0,0.05v14.51
							C97.42,273.89,96.84,274.48,96.11,274.48C96.12,274.48,96.12,274.48,96.11,274.48"/>
						<rect id="Rechteck_2985" x="95.79" y="172.58" class="st2" width="0.65" height="78.36"/>
						<rect id="Rechteck_2986" x="107.53" y="267.99" class="st2" width="0.65" height="43.2"/>
						<path id="Pfad_4155" class="st2" d="M107.85,261.81c-0.72,0-1.3-0.58-1.3-1.3c0,0,0,0,0,0v-14.51c0-0.72,0.58-1.3,1.3-1.3
							c0.72,0,1.3,0.58,1.3,1.3v14.51C109.16,261.23,108.58,261.81,107.85,261.81C107.86,261.81,107.86,261.81,107.85,261.81"/>
						<rect id="Rechteck_2987" x="107.53" y="172.58" class="st2" width="0.65" height="65.69"/>
						<rect id="Rechteck_2988" x="119.27" y="245.99" class="st2" width="0.65" height="65.21"/>
						<path id="Pfad_4156" class="st2" d="M119.59,239.8c-0.72,0-1.3-0.58-1.3-1.3c0,0,0,0,0,0v-14.51c0-0.72,0.58-1.3,1.3-1.3
							s1.3,0.58,1.3,1.3v14.51C120.9,239.22,120.32,239.8,119.59,239.8C119.59,239.8,119.59,239.8,119.59,239.8"/>
						<rect id="Rechteck_2989" x="119.27" y="172.58" class="st2" width="0.65" height="43.68"/>
						<rect id="Rechteck_2990" x="131.01" y="233.13" class="st2" width="0.65" height="78.07"/>
						<path id="Pfad_4157" class="st2" d="M131.33,226.95c-0.72,0-1.31-0.58-1.31-1.3c0,0,0,0,0,0v-14.51
							c0-0.72,0.58-1.31,1.31-1.31c0.72,0,1.31,0.58,1.31,1.31l0,0v14.51C132.64,226.36,132.06,226.94,131.33,226.95
							C131.33,226.95,131.33,226.95,131.33,226.95"/>
						<rect id="Rechteck_2991" x="131.01" y="172.58" class="st2" width="0.65" height="30.82"/>
						<rect id="Rechteck_2992" x="142.75" y="242.99" class="st2" width="0.65" height="68.2"/>
						<path id="Pfad_4158" class="st2" d="M143.07,236.81c-0.72,0-1.3-0.58-1.31-1.3v-14.52c0-0.72,0.58-1.31,1.31-1.31
							c0.72,0,1.31,0.58,1.31,1.31l0,0v14.52C144.38,236.22,143.79,236.81,143.07,236.81C143.07,236.81,143.07,236.81,143.07,236.81
							"/>
						<rect id="Rechteck_2993" x="142.75" y="172.58" class="st2" width="0.65" height="40.69"/>
						<rect id="Rechteck_2994" x="154.49" y="257.51" class="st2" width="0.65" height="53.69"/>
						<path id="Pfad_4159" class="st2" d="M154.82,251.32c-0.72,0-1.3-0.59-1.3-1.31V235.5c0-0.72,0.58-1.3,1.3-1.3
							c0.72,0,1.3,0.58,1.3,1.3v14.52C156.12,250.74,155.54,251.32,154.82,251.32C154.82,251.32,154.82,251.32,154.82,251.32"/>
						<rect id="Rechteck_2995" x="154.49" y="172.58" class="st2" width="0.65" height="55.2"/>
						<rect id="Rechteck_2996" x="166.23" y="270" class="st2" width="0.65" height="41.2"/>
						<path id="Pfad_4160" class="st2" d="M166.56,263.81c-0.72,0-1.3-0.58-1.3-1.3c0,0,0,0,0,0v-14.52c0-0.72,0.58-1.3,1.3-1.3
							c0.72,0,1.3,0.58,1.3,1.3v14.52C167.86,263.23,167.28,263.81,166.56,263.81"/>
						<rect id="Rechteck_2997" x="166.23" y="172.58" class="st2" width="0.65" height="67.69"/>
						<rect id="Rechteck_2998" x="177.97" y="241.49" class="st2" width="0.65" height="69.71"/>
						<path id="Pfad_4161" class="st2" d="M178.3,235.3c-0.72,0-1.3-0.58-1.31-1.3v-14.52c0-0.72,0.58-1.31,1.31-1.31
							c0.72,0,1.31,0.58,1.31,1.31V234C179.6,234.72,179.02,235.3,178.3,235.3"/>
						<rect id="Rechteck_2999" x="177.97" y="172.58" class="st2" width="0.65" height="39.18"/>
						<rect id="Rechteck_3000" x="189.71" y="231.13" class="st2" width="0.65" height="80.07"/>
						<path id="Pfad_4162" class="st2" d="M190.04,224.94c-0.72,0-1.3-0.58-1.31-1.3v-14.52c0-0.72,0.58-1.31,1.31-1.31
							c0.72,0,1.31,0.58,1.31,1.31v14.52C191.34,224.36,190.75,224.94,190.04,224.94"/>
						<rect id="Rechteck_3001" x="189.71" y="172.58" class="st2" width="0.65" height="28.82"/>
						<rect id="Rechteck_3002" x="201.45" y="217.18" class="st2" width="0.65" height="94.01"/>
						<path id="Pfad_4163" class="st2" d="M201.77,211c-0.72,0-1.3-0.58-1.31-1.3v-14.52c0-0.72,0.58-1.31,1.31-1.31
							c0.72,0,1.31,0.58,1.31,1.31v14.52C203.08,210.42,202.5,211,201.77,211"/>
						<rect id="Rechteck_3003" x="201.45" y="172.58" class="st2" width="0.65" height="14.88"/>
						<rect id="Rechteck_3004" x="213.19" y="229.91" class="st2" width="0.65" height="81.29"/>
						<path id="Pfad_4164" class="st2" d="M213.52,223.72c-0.72,0-1.31-0.58-1.31-1.3c0,0,0,0,0,0V207.9
							c-0.01-0.72,0.56-1.31,1.28-1.33c0.72-0.01,1.31,0.56,1.33,1.28c0,0.02,0,0.03,0,0.05v14.52
							C214.82,223.13,214.24,223.72,213.52,223.72C213.52,223.72,213.52,223.72,213.52,223.72"/>
						<rect id="Rechteck_3005" x="213.19" y="172.58" class="st2" width="0.65" height="27.6"/>
						<rect id="Rechteck_3006" x="224.93" y="232.05" class="st2" width="0.65" height="79.15"/>
						<path id="Pfad_4165" class="st2" d="M225.26,225.86c-0.72,0-1.3-0.58-1.3-1.3c0,0,0,0,0,0v-14.52c0-0.72,0.58-1.3,1.3-1.3
							c0.72,0,1.3,0.58,1.3,1.3l0,0v14.52C226.56,225.28,225.98,225.86,225.26,225.86"/>
						<rect id="Rechteck_3007" x="224.93" y="172.58" class="st2" width="0.65" height="29.74"/>
						<rect id="Rechteck_3008" x="236.67" y="253.13" class="st2" width="0.65" height="58.06"/>
						<path id="Pfad_4166" class="st2" d="M237,246.95c-0.72,0-1.31-0.58-1.31-1.3c0,0,0,0,0,0v-14.51c0-0.72,0.58-1.31,1.31-1.31
							c0.72,0,1.31,0.58,1.31,1.31v14.51C238.3,246.36,237.72,246.95,237,246.95C237,246.95,237,246.95,237,246.95"/>
						<rect id="Rechteck_3009" x="236.67" y="172.58" class="st2" width="0.65" height="50.83"/>
						<rect id="Rechteck_3010" x="248.41" y="257.51" class="st2" width="0.65" height="53.69"/>
						<path id="Pfad_4167" class="st2" d="M248.74,251.32c-0.72,0-1.31-0.58-1.31-1.3c0,0,0,0,0,0V235.5c0-0.72,0.58-1.31,1.31-1.31
							c0.72,0,1.31,0.58,1.31,1.31v14.52C250.04,250.74,249.46,251.32,248.74,251.32C248.74,251.32,248.74,251.32,248.74,251.32"/>
						<rect id="Rechteck_3011" x="248.41" y="172.58" class="st2" width="0.65" height="55.2"/>
						<rect id="Rechteck_3012" x="260.15" y="265" class="st2" width="0.65" height="46.2"/>
						<path id="Pfad_4168" class="st2" d="M260.48,258.81c-0.72,0-1.31-0.58-1.31-1.3c0,0,0,0,0,0v-14.51
							c0-0.72,0.58-1.31,1.31-1.31c0.72,0,1.31,0.58,1.31,1.31v14.51C261.78,258.23,261.2,258.81,260.48,258.81
							C260.48,258.81,260.48,258.81,260.48,258.81"/>
						<rect id="Rechteck_3013" x="260.15" y="172.58" class="st2" width="0.65" height="62.69"/>
						<rect id="Rechteck_3014" x="271.89" y="253.13" class="st2" width="0.65" height="58.06"/>
						<path id="Pfad_4169" class="st2" d="M272.22,246.95c-0.72,0-1.31-0.58-1.31-1.3c0,0,0,0,0,0v-14.51c0-0.72,0.58-1.3,1.3-1.3
							c0.72,0,1.3,0.58,1.3,1.3v14.51C273.52,246.36,272.94,246.94,272.22,246.95C272.22,246.95,272.22,246.95,272.22,246.95"/>
						<rect id="Rechteck_3015" x="271.89" y="172.58" class="st2" width="0.65" height="50.83"/>
						<rect id="Rechteck_3016" x="283.63" y="244.77" class="st2" width="0.65" height="66.43"/>
						<path id="Pfad_4170" class="st2" d="M283.96,238.59c-0.72,0-1.3-0.58-1.3-1.3c0,0,0,0,0,0v-14.52
							c0.01-0.72,0.61-1.29,1.33-1.28c0.7,0.01,1.27,0.58,1.28,1.28v14.52C285.27,238,284.68,238.59,283.96,238.59
							C283.96,238.59,283.96,238.59,283.96,238.59"/>
						<rect id="Rechteck_3017" x="283.63" y="172.58" class="st2" width="0.65" height="42.46"/>
						<rect id="Rechteck_3018" x="295.37" y="257.51" class="st2" width="0.65" height="53.69"/>
						<path id="Pfad_4171" class="st2" d="M295.7,251.32c-0.72,0-1.31-0.58-1.31-1.3c0,0,0,0,0,0V235.5c0-0.72,0.58-1.31,1.31-1.31
							c0.72,0,1.31,0.58,1.31,1.31v14.52C297.01,250.74,296.42,251.32,295.7,251.32C295.7,251.32,295.7,251.32,295.7,251.32"/>
						<rect id="Rechteck_3019" x="295.37" y="172.58" class="st2" width="0.65" height="55.2"/>
						<rect id="Rechteck_3020" x="307.11" y="244.88" class="st2" width="0.65" height="66.31"/>
						<path id="Pfad_4172" class="st2" d="M307.44,238.7c-0.72,0-1.31-0.58-1.31-1.3c0,0,0,0,0,0v-14.51c0-0.72,0.58-1.31,1.31-1.31
							s1.31,0.58,1.31,1.31l0,0v14.51C308.75,238.11,308.16,238.7,307.44,238.7C307.44,238.7,307.44,238.7,307.44,238.7"/>
						<rect id="Rechteck_3021" x="307.11" y="172.58" class="st2" width="0.65" height="42.58"/>
						<rect id="Rechteck_3022" x="318.85" y="256.35" class="st2" width="0.65" height="54.85"/>
						<path id="Pfad_4173" class="st2" d="M319.18,250.16c-0.72,0-1.31-0.58-1.31-1.3c0,0,0,0,0,0v-14.51
							c0-0.72,0.58-1.31,1.31-1.31s1.31,0.58,1.31,1.31v14.51C320.48,249.58,319.9,250.16,319.18,250.16
							C319.18,250.16,319.18,250.16,319.18,250.16"/>
						<rect id="Rechteck_3023" x="318.85" y="172.58" class="st2" width="0.65" height="54.04"/>
						<rect id="Rechteck_3024" x="330.59" y="267.99" class="st2" width="0.65" height="43.2"/>
						<path id="Pfad_4174" class="st2" d="M330.92,261.81c-0.72,0-1.31-0.58-1.31-1.3c0,0,0,0,0,0v-14.51c0-0.72,0.58-1.3,1.3-1.3
							c0.72,0,1.3,0.58,1.3,1.3l0,0v14.51C332.22,261.22,331.64,261.81,330.92,261.81C330.92,261.81,330.92,261.81,330.92,261.81"/>
						<rect id="Rechteck_3025" x="330.59" y="172.58" class="st2" width="0.65" height="65.69"/>
						<rect id="Rechteck_3026" x="342.34" y="272.37" class="st2" width="0.65" height="38.83"/>
						<path id="Pfad_4175" class="st2" d="M342.66,266.19c-0.72,0-1.3-0.58-1.3-1.3c0,0,0,0,0,0v-14.51
							c-0.01-0.72,0.56-1.31,1.28-1.33c0.72-0.01,1.32,0.56,1.33,1.28c0,0.02,0,0.03,0,0.05v14.51
							C343.96,265.6,343.38,266.18,342.66,266.19C342.66,266.19,342.66,266.19,342.66,266.19"/>
						<rect id="Rechteck_3027" x="342.34" y="172.58" class="st2" width="0.65" height="70.07"/>
						<rect id="Rechteck_3028" x="354.07" y="282.17" class="st2" width="0.65" height="29.03"/>
						<path id="Pfad_4176" class="st2" d="M354.4,275.98c-0.72,0-1.31-0.58-1.31-1.3c0,0,0,0,0,0v-14.51c0-0.72,0.58-1.31,1.31-1.31
							s1.31,0.58,1.31,1.31l0,0v14.51C355.71,275.4,355.12,275.98,354.4,275.98C354.4,275.98,354.4,275.98,354.4,275.98"/>
						<rect id="Rechteck_3029" x="354.07" y="172.58" class="st2" width="0.65" height="79.86"/>
						<rect id="Rechteck_3030" x="365.81" y="268.11" class="st2" width="0.65" height="43.09"/>
						<path id="Pfad_4177" class="st2" d="M366.14,261.92c-0.72,0-1.31-0.58-1.31-1.3c0,0,0,0,0,0v-14.51
							c0-0.72,0.58-1.31,1.31-1.31s1.31,0.58,1.31,1.31v14.51C367.44,261.34,366.86,261.92,366.14,261.92
							C366.14,261.92,366.14,261.92,366.14,261.92"/>
						<rect id="Rechteck_3031" x="365.81" y="172.58" class="st2" width="0.65" height="65.8"/>
						<rect id="Rechteck_3032" x="377.55" y="254.28" class="st2" width="0.65" height="56.91"/>
						<path id="Pfad_4178" class="st2" d="M377.88,248.1c-0.72,0-1.31-0.58-1.31-1.3c0,0,0,0,0,0v-14.51c0-0.72,0.58-1.31,1.31-1.31
							s1.31,0.58,1.31,1.31v14.51C379.19,247.51,378.6,248.1,377.88,248.1C377.88,248.1,377.88,248.1,377.88,248.1"/>
						<rect id="Rechteck_3033" x="377.55" y="172.58" class="st2" width="0.65" height="51.98"/>
						<rect id="Rechteck_3034" x="389.29" y="272.37" class="st2" width="0.65" height="38.83"/>
						<path id="Pfad_4179" class="st2" d="M389.62,266.19c-0.72,0-1.31-0.58-1.31-1.3c0,0,0,0,0,0v-14.51c0-0.72,0.58-1.3,1.3-1.3
							c0.72,0,1.3,0.58,1.3,1.3v14.51C390.92,265.6,390.34,266.18,389.62,266.19C389.62,266.19,389.62,266.19,389.62,266.19"/>
						<rect id="Rechteck_3035" x="389.29" y="172.58" class="st2" width="0.65" height="70.07"/>
						<rect id="Rechteck_3036" x="401.04" y="256.46" class="st2" width="0.65" height="54.73"/>
						<path id="Pfad_4180" class="st2" d="M401.36,250.28c-0.72,0-1.3-0.58-1.3-1.3c0,0,0,0,0,0v-14.51c0-0.72,0.58-1.3,1.3-1.3
							s1.3,0.58,1.3,1.3v14.51C402.67,249.69,402.08,250.28,401.36,250.28C401.36,250.28,401.36,250.28,401.36,250.28"/>
						<rect id="Rechteck_3037" x="401.04" y="172.58" class="st2" width="0.65" height="54.16"/>
						<rect id="Rechteck_3038" x="412.78" y="253.13" class="st2" width="0.65" height="58.06"/>
						<path id="Pfad_4181" class="st2" d="M413.1,246.95c-0.72,0-1.31-0.58-1.31-1.3c0,0,0,0,0,0v-14.51
							c0.01-0.72,0.61-1.3,1.33-1.28c0.7,0.01,1.27,0.58,1.28,1.28v14.51C414.41,246.36,413.82,246.95,413.1,246.95
							C413.1,246.95,413.1,246.95,413.1,246.95"/>
						<rect id="Rechteck_3039" x="412.78" y="172.58" class="st2" width="0.65" height="50.83"/>
						<rect id="Rechteck_3040" x="424.52" y="265.23" class="st2" width="0.65" height="45.97"/>
						<path id="Pfad_4182" class="st2" d="M424.84,259.04c-0.72,0-1.31-0.58-1.31-1.3c0,0,0,0,0,0v-14.52
							c0-0.72,0.58-1.31,1.31-1.31s1.31,0.58,1.31,1.31l0,0v14.52C426.15,258.46,425.56,259.04,424.84,259.04"/>
						<rect id="Rechteck_3041" x="424.52" y="172.58" class="st2" width="0.65" height="62.92"/>
						<rect id="Rechteck_3042" x="436.26" y="284.35" class="st2" width="0.65" height="26.85"/>
						<path id="Pfad_4183" class="st2" d="M436.58,278.17c-0.72,0-1.31-0.58-1.31-1.3c0,0,0,0,0,0v-14.51c0-0.72,0.58-1.3,1.3-1.3
							c0.72,0,1.3,0.58,1.3,1.3v14.51C437.89,277.58,437.3,278.17,436.58,278.17C436.58,278.17,436.58,278.17,436.58,278.17"/>
						<rect id="Rechteck_3043" x="436.26" y="172.58" class="st2" width="0.65" height="82.05"/>
						<rect id="Rechteck_3044" x="448" y="292.9" class="st2" width="0.65" height="18.29"/>
						<path id="Pfad_4184" class="st2" d="M448.32,286.72c-0.72,0-1.31-0.58-1.31-1.3c0,0,0,0,0,0V270.9c0-0.72,0.58-1.3,1.3-1.3
							s1.3,0.58,1.3,1.3v14.52C449.63,286.13,449.04,286.71,448.32,286.72C448.32,286.72,448.32,286.72,448.32,286.72"/>
						<rect id="Rechteck_3045" x="448" y="172.58" class="st2" width="0.65" height="90.6"/>
						<rect id="Rechteck_3046" x="459.73" y="297.6" class="st2" width="0.65" height="13.59"/>
						<path id="Pfad_4185" class="st2" d="M460.06,291.42c-0.72,0-1.3-0.58-1.3-1.3c0,0,0,0,0,0V275.6
							c-0.01-0.72,0.56-1.32,1.28-1.33c0.72-0.01,1.32,0.56,1.33,1.28c0,0.02,0,0.03,0,0.05v14.51
							C461.37,290.83,460.78,291.42,460.06,291.42C460.06,291.42,460.06,291.42,460.06,291.42"/>
						<rect id="Rechteck_3047" x="459.73" y="172.58" class="st2" width="0.65" height="95.3"/>
						<rect id="Rechteck_3048" x="471.48" y="272.95" class="st2" width="0.65" height="38.25"/>
						<path id="Pfad_4186" class="st2" d="M471.8,266.76c-0.72,0-1.31-0.58-1.31-1.3c0,0,0,0,0,0v-14.51
							c0.01-0.72,0.61-1.3,1.33-1.28c0.7,0.01,1.27,0.58,1.28,1.28v14.51C473.11,266.18,472.52,266.76,471.8,266.76"/>
						<rect id="Rechteck_3049" x="471.48" y="172.58" class="st2" width="0.65" height="70.64"/>
						<rect id="Rechteck_3050" x="483.22" y="259.63" class="st2" width="0.65" height="51.57"/>
						<path id="Pfad_4187" class="st2" d="M483.54,253.45c-0.72,0-1.31-0.58-1.31-1.3c0,0,0,0,0,0v-14.51
							c0-0.72,0.58-1.31,1.31-1.31c0.72,0,1.31,0.58,1.31,1.31v14.52C484.85,252.86,484.27,253.45,483.54,253.45
							C483.55,253.45,483.54,253.45,483.54,253.45"/>
						<rect id="Rechteck_3051" x="483.22" y="172.58" class="st2" width="0.65" height="57.33"/>
						<g id="Gruppe_8206" transform="translate(65.786 46.37)" class="st4">
							<g id="Gruppe_8205">
								<g>
									<defs>
										
											<rect id="SVGID_00000139262257885814030290000013946500111788006800_" x="-34.19" y="93.17" width="168.63" height="9.68"/>
									</defs>
									<clipPath id="SVGID_00000005981333500034776170000008212350692334917788_">
										<use xlink:href="#SVGID_00000139262257885814030290000013946500111788006800_"  style="overflow:visible;"/>
									</clipPath>
									<g id="Gruppe_8204" style="clip-path:url(#SVGID_00000005981333500034776170000008212350692334917788_);">
										<rect id="Rechteck_3052" x="-34.19" y="93.17" class="st2" width="168.63" height="9.68"/>
									</g>
								</g>
							</g>
						</g>
						<g id="Gruppe_8209" transform="translate(471.854 46.37)" class="st6">
							<g id="Gruppe_8208">
								<g>
									<defs>
										
											<rect id="SVGID_00000099647065083819466310000017438064944963342467_" x="-260.1" y="93.17" width="48.48" height="9.68"/>
									</defs>
									<clipPath id="SVGID_00000143574905094905201000000009236158452445289879_">
										<use xlink:href="#SVGID_00000099647065083819466310000017438064944963342467_"  style="overflow:visible;"/>
									</clipPath>
									<g id="Gruppe_8207" style="clip-path:url(#SVGID_00000143574905094905201000000009236158452445289879_);">
										<rect id="Rechteck_3054" x="-260.1" y="93.17" class="st2" width="48.48" height="9.68"/>
									</g>
								</g>
							</g>
						</g>
						<rect id="Rechteck_3056" x="274.1" y="139.54" class="st2" width="48.48" height="9.68"/>
						<g id="Gruppe_8212" transform="translate(758.318 46.37)" class="st8">
							<g id="Gruppe_8211">
								<g>
									<defs>
										
											<rect id="SVGID_00000151532779678345552920000004921357389603237051_" x="-419.46" y="93.17" width="152.88" height="9.68"/>
									</defs>
									<clipPath id="SVGID_00000152244395761296538550000012636454211450202801_">
										<use xlink:href="#SVGID_00000151532779678345552920000004921357389603237051_"  style="overflow:visible;"/>
									</clipPath>
									<g id="Gruppe_8210" style="clip-path:url(#SVGID_00000152244395761296538550000012636454211450202801_);">
										<rect id="Rechteck_3057" x="-419.46" y="93.17" class="st2" width="152.88" height="9.68"/>
									</g>
								</g>
							</g>
						</g>
						<rect id="Rechteck_3059" x="342.74" y="143.08" class="st2" width="7.48" height="2.59"/>
						<rect id="Rechteck_3060" x="217.51" y="143.08" class="st2" width="7.48" height="2.59"/>
						<rect id="Rechteck_3061" x="182.92" y="143.08" class="st2" width="7.48" height="2.59"/>
						<rect id="Rechteck_3062" x="109.6" y="143.08" class="st2" width="7.48" height="2.59"/>
						<rect id="Rechteck_3063" x="89.9" y="143.08" class="st2" width="7.48" height="2.59"/>
						<rect id="Rechteck_3064" x="379.13" y="143.08" class="st2" width="7.48" height="2.59"/>
						<rect id="Rechteck_3065" x="391.65" y="143.08" class="st2" width="7.48" height="2.59"/>
						<rect id="Rechteck_3066" x="467.49" y="143.08" class="st2" width="7.48" height="2.59"/>
						<g id="Gruppe_8215" transform="translate(722.804 493.629)" class="st4">
							<g id="Gruppe_8214">
								<g>
									<defs>
										
											<rect id="SVGID_00000165924886031586895320000015397379122635724694_" x="-399.7" y="-155.65" width="168.63" height="9.68"/>
									</defs>
									<clipPath id="SVGID_00000159429522779694987780000005828127434557549227_">
										<use xlink:href="#SVGID_00000165924886031586895320000015397379122635724694_"  style="overflow:visible;"/>
									</clipPath>
									<g id="Gruppe_8213" style="clip-path:url(#SVGID_00000159429522779694987780000005828127434557549227_);">
										<rect id="Rechteck_3067" x="-399.7" y="-155.65" class="st2" width="168.64" height="9.68"/>
									</g>
								</g>
							</g>
						</g>
						<g id="Gruppe_8218" transform="translate(587.548 493.629)" class="st6">
							<g id="Gruppe_8217">
								<g>
									<defs>
										
											<rect id="SVGID_00000148630349116853022770000004991707395797450425_" x="-324.46" y="-155.65" width="48.48" height="9.68"/>
									</defs>
									<clipPath id="SVGID_00000075871391587433385360000008050203412282893225_">
										<use xlink:href="#SVGID_00000148630349116853022770000004991707395797450425_"  style="overflow:visible;"/>
									</clipPath>
									<g id="Gruppe_8216" style="clip-path:url(#SVGID_00000075871391587433385360000008050203412282893225_);">
										<rect id="Rechteck_3069" x="-324.46" y="-155.65" class="st2" width="48.48" height="9.68"/>
									</g>
								</g>
							</g>
						</g>
						<rect id="Rechteck_3071" x="200.75" y="337.98" class="st2" width="48.48" height="9.68"/>
						<g id="Gruppe_8221" transform="translate(65.786 493.629)" class="st8">
							<g id="Gruppe_8220">
								<g>
									<defs>
										
											<rect id="SVGID_00000073692798601114327020000012632909443904563594_" x="-34.19" y="-155.65" width="152.88" height="9.68"/>
									</defs>
									<clipPath id="SVGID_00000052814726240062462030000017338613091995646357_">
										<use xlink:href="#SVGID_00000073692798601114327020000012632909443904563594_"  style="overflow:visible;"/>
									</clipPath>
									<g id="Gruppe_8219" style="clip-path:url(#SVGID_00000052814726240062462030000017338613091995646357_);">
										<rect id="Rechteck_3072" x="-34.19" y="-155.65" class="st2" width="152.88" height="9.68"/>
									</g>
								</g>
							</g>
						</g>
						<rect id="Rechteck_3074" x="173.11" y="341.53" class="st2" width="7.48" height="2.59"/>
						<rect id="Rechteck_3075" x="298.34" y="341.53" class="st2" width="7.48" height="2.59"/>
						<rect id="Rechteck_3076" x="332.92" y="341.53" class="st2" width="7.48" height="2.59"/>
						<rect id="Rechteck_3077" x="406.25" y="341.53" class="st2" width="7.48" height="2.59"/>
						<rect id="Rechteck_3078" x="425.94" y="341.53" class="st2" width="7.48" height="2.59"/>
						<rect id="Rechteck_3079" x="136.72" y="341.53" class="st2" width="7.48" height="2.59"/>
						<rect id="Rechteck_3080" x="124.2" y="341.53" class="st2" width="7.48" height="2.59"/>
						<rect id="Rechteck_3081" x="48.35" y="341.53" class="st2" width="7.48" height="2.59"/>
						<rect id="Rechteck_3082" x="503.94" y="118.97" class="st2" width="7.94" height="2.24"/>
						<rect id="Rechteck_3083" x="489.01" y="118.97" class="st2" width="7.94" height="2.24"/>
						<rect id="Rechteck_3084" x="474.08" y="118.97" class="st2" width="7.94" height="2.24"/>
						<rect id="Rechteck_3085" x="350.36" y="118.97" class="st2" width="23.87" height="2.24"/>
						<rect id="Rechteck_3086" x="156.48" y="118.97" class="st2" width="23.87" height="2.24"/>
						<rect id="Rechteck_3087" x="2.4" y="118.97" class="st2" width="3.86" height="2.24"/>
						<rect id="Rechteck_3088" x="10.56" y="118.97" class="st2" width="3.86" height="2.24"/>
						<rect id="Rechteck_3089" x="128.3" y="118.97" class="st2" width="23.87" height="2.24"/>
						<rect id="Rechteck_3090" x="503.94" y="360.48" class="st2" width="7.94" height="2.24"/>
						<rect id="Rechteck_3091" x="489.01" y="360.48" class="st2" width="7.94" height="2.24"/>
						<rect id="Rechteck_3092" x="474.08" y="360.48" class="st2" width="7.94" height="2.24"/>
						<rect id="Rechteck_3093" x="350.36" y="360.48" class="st2" width="23.87" height="2.24"/>
						<rect id="Rechteck_3094" x="156.48" y="360.48" class="st2" width="23.87" height="2.24"/>
						<rect id="Rechteck_3095" x="2.4" y="360.48" class="st2" width="3.86" height="2.24"/>
						<rect id="Rechteck_3096" x="10.56" y="360.48" class="st2" width="3.86" height="2.24"/>
						<rect id="Rechteck_3097" x="128.3" y="360.48" class="st2" width="23.87" height="2.24"/>
					</g>
				</g>
			</g>
		</g>
	</g>
</g>
</svg>
