<?xml version="1.0" encoding="utf-8"?>
<!-- Generator: Adobe Illustrator 27.2.0, SVG Export Plug-In . SVG Version: 6.00 Build 0)  -->
<svg version="1.1" id="Ebene_1" xmlns="http://www.w3.org/2000/svg" xmlns:xlink="http://www.w3.org/1999/xlink" x="0px" y="0px"
	 viewBox="0 0 512 512" style="enable-background:new 0 0 512 512;" xml:space="preserve">
<style type="text/css">
	.st0{fill:#88FF4E;}
</style>
<g id="Gruppe_187" transform="translate(0 0)">
	<g>
		<g id="Gruppe_186" transform="translate(0 0)">
			<g id="Pfad_42">
				<path class="st0" d="M293.07,266.4c-17.57,0-34.1-6.84-46.53-19.27c-12.44-12.43-19.29-28.96-19.29-46.54
					s6.84-34.11,19.27-46.55c12.43-12.44,28.96-19.29,46.55-19.29c36.31,0,65.83,29.53,65.84,65.82l0,0l0,0
					c0,17.58-6.84,34.11-19.28,46.55c-12.43,12.43-28.96,19.28-46.54,19.29C293.09,266.4,293.08,266.4,293.07,266.4z M293.09,149.27
					c-13.72,0-26.6,5.34-36.29,15.03c-9.69,9.69-15.02,22.58-15.02,36.28c0,13.7,5.34,26.59,15.03,36.27
					c9.69,9.68,22.57,15.02,36.26,15.02c0.01,0,0.01,0,0.02,0c13.7,0,26.59-5.34,36.27-15.03s15.02-22.58,15.02-36.28l0,0
					C344.38,172.29,321.37,149.27,293.09,149.27z"/>
			</g>
			<g id="Pfad_43">
				<path class="st0" d="M107.66,451.83c-36.29,0-65.82-29.52-65.83-65.82c0-17.58,6.84-34.11,19.27-46.55
					c12.43-12.44,28.96-19.29,46.54-19.29c36.31,0,65.83,29.53,65.84,65.82l0,0l0,0C173.49,422.28,143.97,451.82,107.66,451.83
					C107.67,451.83,107.67,451.83,107.66,451.83z M107.67,334.7c-13.72,0-26.6,5.34-36.29,15.03c-9.69,9.69-15.02,22.58-15.02,36.28
					c0.01,28.28,23.02,51.29,51.3,51.29c0,0,0,0,0.01,0c28.29-0.01,51.3-23.03,51.29-51.31l0,0
					C158.96,357.71,135.95,334.7,107.67,334.7z"/>
			</g>
			<g id="Pfad_44">
				<path class="st0" d="M299.85,465.33c-10.98,0-21.31-4.27-29.08-12.04c-7.77-7.77-12.05-18.09-12.06-29.08
					c0-22.68,18.44-41.14,41.12-41.14c0,0,0,0,0.01,0c22.68,0,41.13,18.43,41.13,41.1v0.02c0,10.98-4.27,21.31-12.04,29.09
					C321.18,461.05,310.84,465.32,299.85,465.33C299.86,465.33,299.85,465.33,299.85,465.33z M299.87,397.59
					C299.86,397.59,299.86,397.59,299.87,397.59c-14.7,0-26.63,11.94-26.63,26.62c0,7.11,2.77,13.79,7.8,18.81
					c5.03,5.03,11.71,7.79,18.81,7.79c0,0,0,0,0.01,0c7.11,0,13.79-2.77,18.81-7.8c5.02-5.03,7.79-11.71,7.79-18.82v-0.02
					C326.45,409.51,314.52,397.59,299.87,397.59z"/>
			</g>
			<g id="Pfad_45">
				<path class="st0" d="M428.67,144.3c-10.98,0-21.31-4.27-29.08-12.04c-7.77-7.77-12.05-18.1-12.06-29.09s4.27-21.32,12.04-29.09
					c7.77-7.77,18.1-12.05,29.09-12.06c0,0,0,0,0.01,0c22.68,0,41.13,18.43,41.13,41.1v0.02c0,10.99-4.27,21.32-12.04,29.09
					C450,140.02,439.67,144.3,428.67,144.3C428.68,144.3,428.67,144.3,428.67,144.3z M428.69,76.56
					C428.68,76.56,428.68,76.56,428.69,76.56c-7.13,0-13.82,2.77-18.84,7.8c-5.02,5.03-7.79,11.71-7.79,18.82
					c0,7.11,2.77,13.79,7.8,18.81c5.03,5.02,11.71,7.79,18.81,7.79c0,0,0,0,0.01,0c7.11,0,13.79-2.77,18.81-7.8
					c5.02-5.03,7.79-11.71,7.79-18.82v-0.02C455.27,88.48,443.35,76.56,428.69,76.56z"/>
			</g>
			<g id="Pfad_46">
				<path class="st0" d="M94.39,128.92c-22.68,0-41.13-18.45-41.13-41.13s18.45-41.13,41.13-41.13c22.69,0,41.13,18.44,41.13,41.11
					v0.02C135.53,110.46,117.07,128.92,94.39,128.92z M94.41,61.17c-14.69,0-26.63,11.94-26.63,26.61s11.94,26.61,26.61,26.61
					S121,102.45,121,87.78v-0.02C121,73.1,109.07,61.17,94.41,61.17z"/>
			</g>
			<g id="Linie_2">
				
					<rect x="174.14" y="67.75" transform="matrix(0.3742 -0.9274 0.9274 0.3742 -11.114 252.3325)" class="st0" width="14.52" height="133.31"/>
			</g>
			<g id="Linie_3">
				
					<rect x="289.21" y="259.01" transform="matrix(0.9987 -0.0515 0.0515 0.9987 -16.3262 15.6961)" class="st0" width="14.52" height="131.4"/>
			</g>
			<g id="Linie_4">
				
					<rect x="208.84" y="351.67" transform="matrix(0.3576 -0.9339 0.9339 0.3576 -239.4711 462.0412)" class="st0" width="14.52" height="106.82"/>
			</g>
			<g id="Linie_5">
				
					<rect x="334.32" y="137.13" transform="matrix(0.8137 -0.5813 0.5813 0.8137 -14.876 242.3631)" class="st0" width="72.68" height="14.53"/>
			</g>
		</g>
	</g>
</g>
</svg>
