<?xml version="1.0" encoding="utf-8"?>
<!-- Generator: Adobe Illustrator 27.2.0, SVG Export Plug-In . SVG Version: 6.00 Build 0)  -->
<svg version="1.1" id="Ebene_1" xmlns="http://www.w3.org/2000/svg" xmlns:xlink="http://www.w3.org/1999/xlink" x="0px" y="0px"
	 viewBox="0 0 512 512" style="enable-background:new 0 0 512 512;" xml:space="preserve">
<style type="text/css">
	.st0{fill:#88FF4E;}
</style>
<g id="Gruppe_183" transform="translate(0 0)">
	<g>
		<g id="Gruppe_182" transform="translate(0 0)">
			<g id="Pfad_37">
				<path class="st0" d="M252.93,488.49c-1.7,0-3.4-0.65-4.7-1.95L26.65,264.97c-2.6-2.6-2.6-6.8,0-9.4l71.01-71.03
					c1.25-1.25,2.94-1.95,4.7-1.95h101.12c2.69,0,5.11,1.62,6.14,4.1c1.03,2.48,0.46,5.35-1.44,7.25l-66.36,66.33l111.11,111.08
					l111.11-111.08l-66.33-66.33c-1.9-1.9-2.47-4.76-1.44-7.25c1.03-2.48,3.45-4.1,6.14-4.1H403.5c1.76,0,3.45,0.7,4.7,1.95
					l71.03,71.03c1.25,1.25,1.95,2.94,1.95,4.7c0,1.76-0.7,3.45-1.95,4.7l-221.6,221.57C256.33,487.84,254.63,488.49,252.93,488.49z
					 M40.75,260.27l212.18,212.17l212.2-212.17l-64.38-64.38h-82.28l59.68,59.68c1.25,1.25,1.95,2.94,1.95,4.7
					c0,1.77-0.7,3.45-1.95,4.7L257.63,385.45c-2.6,2.6-6.8,2.6-9.4,0L127.71,264.97c-1.25-1.25-1.95-2.94-1.95-4.7
					c0-1.77,0.7-3.45,1.95-4.7l59.71-59.68h-82.31L40.75,260.27z"/>
			</g>
			<g id="Pfad_38">
				<path class="st0" d="M355.86,148.24H254.8c-0.63,0-1.26-0.09-1.85-0.26c-0.6,0.17-1.22,0.26-1.85,0.26H150.01
					c-2.69,0-5.11-1.62-6.14-4.1c-1.03-2.48-0.46-5.35,1.44-7.25L248.24,33.97c2.49-2.49,6.91-2.49,9.4,0L360.57,136.9
					c1.9,1.9,2.47,4.76,1.44,7.25C360.98,146.63,358.55,148.24,355.86,148.24z M257.55,134.95h82.26l-86.88-86.88l-86.88,86.88
					h82.28"/>
			</g>
			<g id="Pfad_39">
				<path class="st0" d="M355.86,148.24H150c-2.69,0-5.11-1.62-6.14-4.1c-1.03-2.48-0.46-5.35,1.44-7.25L248.23,33.97
					c2.6-2.6,6.8-2.6,9.4,0L360.57,136.9c1.9,1.9,2.47,4.76,1.44,7.25C360.98,146.63,358.55,148.24,355.86,148.24z M166.05,134.95
					h173.76l-86.89-86.88L166.05,134.95z"/>
			</g>
		</g>
	</g>
</g>
</svg>
