<?xml version="1.0" encoding="utf-8"?>
<!-- Generator: Adobe Illustrator 27.2.0, SVG Export Plug-In . SVG Version: 6.00 Build 0)  -->
<svg version="1.1" id="Ebene_1" xmlns="http://www.w3.org/2000/svg" xmlns:xlink="http://www.w3.org/1999/xlink" x="0px" y="0px"
	 viewBox="0 0 512 512" style="enable-background:new 0 0 512 512;" xml:space="preserve">
<style type="text/css">
	.st0{fill:#88FF4E;}
</style>
<g id="Gruppe_185" transform="translate(0 0)">
	<g>
		<g id="Gruppe_184" transform="translate(0 0)">
			<g id="Pfad_40">
				<path class="st0" d="M258.64,480.28h-0.09c-91.15,0-165.3-74.15-165.3-165.3v-110.6h330.68v110.6
					C423.94,406.13,349.79,480.28,258.64,480.28z M111.94,223.06v91.92c0,80.85,65.77,146.62,146.62,146.62h0.09
					c80.85,0,146.62-65.77,146.62-146.62v-91.92H111.94z"/>
			</g>
			<g id="Pfad_41">
				<path class="st0" d="M153.14,223.12h-18.67v-82.43c0.43-33.28,13.75-64.28,37.5-87.42c23.75-23.14,55.13-35.49,88.24-35.21
					c67.82,0.88,121.63,54.69,122.51,122.51v82.54h-18.67v-82.42c-0.75-57.5-46.46-103.21-104.08-103.96
					c-28.09-0.26-54.79,10.25-74.97,29.91c-20.17,19.66-31.49,46-31.85,74.17V223.12z"/>
			</g>
			<g id="Linie_1">
				<rect x="246.66" y="281.6" class="st0" width="18.67" height="90.76"/>
			</g>
		</g>
	</g>
</g>
</svg>
