<?xml version="1.0" encoding="utf-8"?>
<!-- Generator: Adobe Illustrator 27.2.0, SVG Export Plug-In . SVG Version: 6.00 Build 0)  -->
<svg version="1.1" id="Ebene_1" xmlns="http://www.w3.org/2000/svg" xmlns:xlink="http://www.w3.org/1999/xlink" x="0px" y="0px"
	 viewBox="0 0 512 512" style="enable-background:new 0 0 512 512;" xml:space="preserve">
<style type="text/css">
	.st0{fill:#FFFFFF;}
</style>
<g>
	<g id="Gruppe_3927">
		<path id="Pfad_2303" class="st0" d="M57.29,327.23c1.65-2.68,3.91-4.93,6.59-6.58c3.52-2.02,7.34-3.46,11.32-4.26
			c5.52-1.19,11.16-1.75,16.81-1.67c6.41-0.1,12.8,0.68,19,2.32c4.34,1.05,8.47,2.81,12.25,5.19c2.55,1.77,4.78,3.96,6.59,6.48
			c1.21,1.56,2.21,3.27,2.95,5.09c0.28,0.99,0.48,1.79,0.59,2.41h40.37c0.16-8.22-1.27-16.4-4.22-24.08
			c-2.95-7.09-7.59-13.35-13.51-18.24c-7.44-5.85-16.1-9.97-25.34-12.04c-12.56-2.99-25.44-4.39-38.35-4.17
			c-11.58-0.18-23.15,1.01-34.46,3.53c-8.98,2.02-17.44,5.9-24.83,11.39c-6.98,5.41-12.33,12.66-15.44,20.93
			c-3.67,10.05-5.43,20.69-5.18,31.38c-0.24,9.73,1.13,19.43,4.05,28.71c2.65,7.7,7.28,14.57,13.43,19.91
			c7.21,5.97,15.76,10.1,24.91,12.04c12.65,2.77,25.57,4.04,38.51,3.8c11.05,0.13,22.08-0.83,32.94-2.87
			c8.02-1.42,15.79-4.01,23.06-7.69c5.6-2.96,10.52-7.06,14.44-12.04c3.52-4.43,6.15-9.49,7.77-14.91
			c1.53-5.58,2.27-11.35,2.21-17.13h-40.38l-0.34,1.85c-0.48,1.71-1.38,3.27-2.62,4.54c-1.8,2.04-3.88,3.82-6.17,5.29
			c-3.82,2.19-8,3.7-12.35,4.45c-6.56,1.33-13.24,1.95-19.93,1.85c-6.38,0.14-12.74-0.61-18.92-2.21
			c-4.47-1.09-8.59-3.29-11.99-6.39c-2.67-2.58-4.74-5.71-6.05-9.18c-1.3-3.68-1.93-7.56-1.86-11.47c-0.03-2.83,0.26-5.66,0.85-8.43
			c0.66-2.76,1.77-5.39,3.29-7.78"/>
		<path id="Pfad_2304" class="st0" d="M20.42,233.42h144.84v-35.93H81.17l74.95-46.55h-5.29c-2.46,0-4.45-2-4.45-4.45v-2.67
			c0-2.46,1.99-4.45,4.45-4.45h12.47c0.68,0,1.36,0.17,1.97,0.48v-36.44H18.01v36.12h85.56l-85.56,52.42v41.49H20.42z
			 M132.12,143.81c0-2.46,1.99-4.45,4.45-4.45c2.46,0,4.45,1.99,4.45,4.45v2.67c0,2.46-1.99,4.45-4.45,4.45
			c-2.46,0-4.45-1.99-4.45-4.45V143.81z M107.18,143.81c0-2.46,1.99-4.45,4.45-4.45l0,0h8.02c2.46,0,4.45,1.99,4.45,4.45l0,0v2.67
			c0,2.46-1.99,4.45-4.45,4.45l0,0h-8.02c-2.46,0-4.45-1.99-4.45-4.45l0,0L107.18,143.81z"/>
		<path id="Pfad_2305" class="st0" d="M320.47,197.3H220.08v-11.67h94.09v-34.64h-94.09v-0.06h-39.86c-1.26,0-2.46-0.54-3.29-1.48
			v83.97h143.55V197.3z"/>
		<path id="Pfad_2306" class="st0" d="M180.22,139.35h80.17c0.38,0,0.75,0.06,1.12,0.15h58.97v-36.12H176.93v37.43
			C177.77,139.89,178.96,139.35,180.22,139.35"/>
		<path id="Pfad_2307" class="st0" d="M459.56,355.87l-21.87-29.55h-72.39c-2.35-0.11-4.16-2.1-4.06-4.45v-2.67
			c-0.1-2.35,1.71-4.34,4.06-4.45h63.81l-26.65-35.96h-54.9v35.96h2.3c2.35,0.11,4.17,2.1,4.06,4.45v2.67
			c0.1,2.35-1.71,4.34-4.06,4.45h-2.3v82.47h39.36v-78.32l58.11,78.35h53.7V278.8h-39.19L459.56,355.87z"/>
		<path id="Pfad_2308" class="st0" d="M338.95,326.34h-0.44c-2.35-0.11-4.17-2.1-4.06-4.45v-2.67c-0.02-1.47,0.67-2.85,1.85-3.73
			c-2.12-6.64-5.55-12.79-10.08-18.08c-4.77-5.23-10.62-9.37-17.14-12.13c-7.28-3.17-14.95-5.38-22.81-6.58
			c-9.4-1.38-18.88-2.03-28.38-1.94c-26.58,0-46.34,5.22-59.29,15.65c-12.95,10.43-19.43,26.51-19.44,48.24
			c0,23.46,6.33,40.78,19,51.95c12.67,11.17,32.97,16.76,60.9,16.76c9.89,0.1,19.77-0.58,29.55-2.04c7.85-1.18,15.5-3.46,22.72-6.76
			c6.29-2.83,11.84-7.08,16.22-12.41c4.35-5.59,7.56-11.98,9.46-18.8c2.35-8.57,3.46-17.42,3.29-26.3c0.02-5.6-0.43-11.2-1.35-16.73
			 M241.84,321.68l17.88-17.93c0.5-0.5,1.3-0.5,1.8-0.01c0,0,0,0,0.01,0.01l17.93,17.88c0.51,0.49,0.53,1.3,0.04,1.81
			c-0.24,0.25-0.58,0.4-0.93,0.4L261,323.86l0,0l-18.22,0.02l0,0c-0.71,0.01-1.29-0.55-1.3-1.26c-0.01-0.36,0.14-0.7,0.4-0.95
			 M300.17,344.06l-38.51,38.6c-0.5,0.5-1.31,0.5-1.81,0l-38.6-38.51c-0.5-0.5-0.5-1.31,0-1.81l12.35-12.37
			c0.23-0.24,0.55-0.37,0.88-0.37l17.59-0.02c0.71-0.01,1.29,0.55,1.31,1.25c0.01,0.36-0.14,0.71-0.4,0.95l-11.44,11.47l19.18,19.13
			l19.1-19.22l-11.47-11.44c-0.51-0.49-0.53-1.3-0.04-1.81c0.24-0.25,0.58-0.4,0.93-0.4l17.59-0.02c0.34,0,0.66,0.13,0.9,0.37
			l12.37,12.35c0.5,0.5,0.5,1.31,0,1.81 M314.08,321.88c0.1,2.35-1.71,4.34-4.06,4.45h-7.27c-2.35-0.11-4.17-2.1-4.06-4.45v-2.67
			c-0.1-2.35,1.71-4.34,4.06-4.45h7.31c2.35,0.11,4.16,2.1,4.06,4.45L314.08,321.88z M329.52,321.88c0.21,2.24-1.44,4.23-3.68,4.44
			c-2.24,0.21-4.23-1.44-4.44-3.68c-0.02-0.25-0.02-0.51,0-0.76v-2.67c-0.21-2.24,1.44-4.23,3.68-4.44
			c2.24-0.21,4.23,1.44,4.44,3.68c0.02,0.25,0.02,0.51,0,0.76V321.88z"/>
		<path id="Pfad_2309" class="st0" d="M373.26,155.07l63.71,78.35h58.9v-82.48h-42.97v29.51l-23.97-29.51h-11.31
			c-2.46,0-4.46-1.99-4.46-4.45v-2.67c0-2.46,2-4.45,4.46-4.45h1.91l-29.23-35.96h-60.2v130.02h43.16L373.26,155.07z M398.91,143.8
			c0-2.46,1.99-4.45,4.45-4.45c2.46,0,4.45,1.99,4.45,4.45v2.68c0,2.46-1.99,4.45-4.45,4.45c-2.46,0-4.45-1.99-4.45-4.45V143.8z
			 M373.97,143.8c0-2.46,1.99-4.45,4.45-4.45h8.02c2.46,0,4.45,2,4.45,4.45v2.68c0,2.46-1.99,4.45-4.45,4.45h-8.02
			c-2.46,0-4.45-2-4.45-4.45V143.8z"/>
		<rect id="Rechteck_1367" x="452.91" y="103.39" class="st0" width="42.97" height="35.96"/>
	</g>
</g>
</svg>
