<svg width="357" height="15" viewBox="0 0 357 15" fill="none" xmlns="http://www.w3.org/2000/svg">
<path d="M352.96 -2.19257e-06L356.973 6.06156L341.693 14.9575L321.348 14.9575L336.305 -1.03741e-06L352.96 -2.19257e-06Z" fill="#87FF4F"/>
<path d="M320.829 0.042092L324.561 -2.45144e-06L309.561 14.9996L289.216 14.9996L304.173 0.0420932L320.829 0.042092Z" fill="#87FF4F"/>
<path d="M288.682 0.042092L292.428 -2.45143e-06L277.429 14.9996L257.083 14.9996L272.04 0.0420932L288.682 0.042092Z" fill="#87FF4F"/>
<path d="M256.551 0.042092L260.297 -2.45143e-06L245.298 14.9996L224.952 14.9996L239.91 0.0420932L256.551 0.042092Z" fill="#87FF4F"/>
<path d="M224.418 0.042092L228.165 -2.45241e-06L213.151 14.9996L192.806 14.9996L207.763 0.0420932L224.418 0.042092Z" fill="#87FF4F"/>
<path d="M192.286 0.042092L196.018 -2.45143e-06L181.018 14.9996L160.673 14.9996L175.63 0.0420932L192.286 0.042092Z" fill="#87FF4F"/>
<path d="M160.141 0.042092L163.901 -2.4524e-06L148.888 14.9996L128.542 14.9996L143.499 0.0420932L160.141 0.042092Z" fill="#87FF4F"/>
<path d="M128.009 0.042092L131.755 -2.45143e-06L116.756 14.9996L96.4102 14.9996L111.368 0.0420932L128.009 0.042092Z" fill="#87FF4F"/>
<path d="M95.8771 0.042092L99.6234 -2.45143e-06L84.6239 14.9996L64.2783 14.9996L79.2358 0.0420932L95.8771 0.042092Z" fill="#87FF4F"/>
<path d="M63.7456 0.042092L67.492 -2.45241e-06L52.4783 14.9996L32.1328 14.9996L47.0903 0.0420932L63.7456 0.042092Z" fill="#87FF4F"/>
<path d="M31.6127 0.042092L35.3451 -2.45143e-06L20.3455 14.9996L5.76896e-07 14.9996L14.9575 0.0420932L31.6127 0.042092Z" fill="#87FF4F"/>
</svg>
