<svg width="42" height="42" viewBox="0 0 42 42" fill="none" xmlns="http://www.w3.org/2000/svg">
<path d="M21 3.9375C17.6254 3.9375 14.3265 4.9382 11.5206 6.81305C8.71468 8.6879 6.52773 11.3527 5.23631 14.4705C3.94489 17.5882 3.607 21.0189 4.26536 24.3287C4.92372 27.6385 6.54876 30.6788 8.935 33.065C11.3212 35.4512 14.3615 37.0763 17.6713 37.7346C20.9811 38.393 24.4118 38.0551 27.5295 36.7637C30.6473 35.4723 33.3121 33.2853 35.187 30.4794C37.0618 27.6735 38.0625 24.3746 38.0625 21C38.0577 16.4762 36.2585 12.1391 33.0597 8.94027C29.8609 5.74146 25.5238 3.94228 21 3.9375ZM22.3125 35.3768V24.9375H26.25C26.5981 24.9375 26.9319 24.7992 27.1781 24.5531C27.4242 24.3069 27.5625 23.9731 27.5625 23.625C27.5625 23.2769 27.4242 22.9431 27.1781 22.6969C26.9319 22.4508 26.5981 22.3125 26.25 22.3125H22.3125V18.375C22.3125 17.6788 22.5891 17.0111 23.0814 16.5188C23.5736 16.0266 24.2413 15.75 24.9375 15.75H27.5625C27.9106 15.75 28.2444 15.6117 28.4906 15.3656C28.7367 15.1194 28.875 14.7856 28.875 14.4375C28.875 14.0894 28.7367 13.7556 28.4906 13.5094C28.2444 13.2633 27.9106 13.125 27.5625 13.125H24.9375C23.5451 13.125 22.2098 13.6781 21.2252 14.6627C20.2406 15.6473 19.6875 16.9826 19.6875 18.375V22.3125H15.75C15.4019 22.3125 15.0681 22.4508 14.8219 22.6969C14.5758 22.9431 14.4375 23.2769 14.4375 23.625C14.4375 23.9731 14.5758 24.3069 14.8219 24.5531C15.0681 24.7992 15.4019 24.9375 15.75 24.9375H19.6875V35.3768C15.9876 35.039 12.5602 33.2879 10.1185 30.4877C7.67668 27.6874 6.40841 24.0536 6.57746 20.3421C6.74651 16.6307 8.33988 13.1272 11.0261 10.5605C13.7124 7.99388 17.2847 6.56158 21 6.56158C24.7153 6.56158 28.2877 7.99388 30.9739 10.5605C33.6601 13.1272 35.2535 16.6307 35.4226 20.3421C35.5916 24.0536 34.3233 27.6874 31.8816 30.4877C29.4398 33.2879 26.0125 35.039 22.3125 35.3768Z" fill="white"/>
</svg>
