<svg width="56" height="74" viewBox="0 0 56 74" fill="none" xmlns="http://www.w3.org/2000/svg">
<mask id="path-1-inside-1_195_7045" fill="white">
<ellipse cx="18" cy="66.5" rx="2" ry="0.5"/>
</mask>
<path d="M19 66.5C19 66.2465 19.1067 66.0637 19.1855 65.9674C19.2584 65.8784 19.3247 65.8393 19.334 65.8338C19.3515 65.8234 19.3103 65.8488 19.1717 65.8834C18.9099 65.9489 18.4952 66 18 66V68C18.6094 68 19.1947 67.9392 19.6567 67.8237C19.8801 67.7679 20.1317 67.6855 20.3517 67.5555C20.5046 67.4651 21 67.1409 21 66.5H19ZM18 66C17.5048 66 17.0901 65.9489 16.8283 65.8834C16.6897 65.8488 16.6485 65.8234 16.666 65.8338C16.6753 65.8393 16.7416 65.8784 16.8145 65.9674C16.8933 66.0637 17 66.2465 17 66.5H15C15 67.1409 15.4954 67.4651 15.6483 67.5555C15.8683 67.6855 16.1199 67.7679 16.3433 67.8237C16.8053 67.9392 17.3906 68 18 68V66ZM17 66.5C17 66.7535 16.8933 66.9363 16.8145 67.0326C16.7416 67.1216 16.6753 67.1607 16.666 67.1662C16.6485 67.1766 16.6897 67.1512 16.8283 67.1166C17.0901 67.0511 17.5048 67 18 67V65C17.3906 65 16.8053 65.0608 16.3433 65.1763C16.1199 65.2321 15.8683 65.3145 15.6483 65.4445C15.4954 65.5349 15 65.8591 15 66.5H17ZM18 67C18.4952 67 18.9099 67.0511 19.1717 67.1166C19.3103 67.1512 19.3515 67.1766 19.334 67.1662C19.3247 67.1607 19.2584 67.1216 19.1855 67.0326C19.1067 66.9363 19 66.7535 19 66.5H21C21 65.8591 20.5046 65.5349 20.3517 65.4445C20.1317 65.3145 19.8801 65.2321 19.6567 65.1763C19.1947 65.0608 18.6094 65 18 65V67Z" fill="white" mask="url(#path-1-inside-1_195_7045)"/>
<path fill-rule="evenodd" clip-rule="evenodd" d="M26.3799 10.018L55.6386 21.1865L55.9686 21.3L55.6386 21.4021L26.1637 34.7498H26.0499C25.1736 34.7498 24.525 34.5342 23.9787 33.9893C23.4325 33.4445 23.1138 32.7976 23 31.708V13.389C23 12.0837 23.33 11.2211 23.8649 10.6763C24.5136 10.1315 25.2761 9.91585 26.3686 10.0294L26.3799 10.018Z" fill="#87FF4F"/>
<circle cx="18" cy="5" r="5" fill="#4E5A64"/>
<rect x="15" y="4" width="6" height="64" rx="3" fill="#4E5A64"/>
</svg>
