<svg width="369" height="60" viewBox="0 0 369 60" fill="none" xmlns="http://www.w3.org/2000/svg">
<path fill-rule="evenodd" clip-rule="evenodd" d="M212.409 1.0061H220.69V7.93293H212.409V1.0061ZM146.625 7.93299C146.16 7.93299 145.773 8.30062 145.773 8.78434V9.30667C145.773 9.77103 146.16 10.158 146.625 10.158H148.173C148.637 10.158 149.024 9.77103 149.024 9.30667V8.78434C149.024 8.31997 148.637 7.93299 148.173 7.93299H146.625ZM151.443 7.93299C150.978 7.93299 150.591 8.30062 150.591 8.78434V9.30667C150.591 9.77103 150.978 10.158 151.443 10.158C151.907 10.158 152.294 9.77103 152.294 9.30667V8.78434C152.294 8.31997 151.907 7.93299 151.443 7.93299ZM156.976 26.0626H129.056H128.592V18.0716L145.077 7.97161H128.592V1.00616H156.976V8.02971C156.86 7.97167 156.725 7.93299 156.589 7.93299H154.19C153.726 7.93299 153.339 8.30062 153.339 8.78434V9.30667C153.339 9.77103 153.726 10.158 154.19 10.158H155.216L140.762 19.1358H156.976V26.0626ZM137.434 42.896C136.892 43.2249 136.466 43.6505 136.157 44.1536L136.195 44.115C135.867 44.6374 135.673 45.1404 135.557 45.6241C135.46 46.1078 135.402 46.6496 135.402 47.2494C135.402 48.0814 135.518 48.8166 135.75 49.4551C136.002 50.0936 136.389 50.6741 136.931 51.2159C137.472 51.7576 138.227 52.164 139.233 52.4542C140.22 52.7444 141.381 52.8798 142.871 52.8798C144.361 52.8798 145.638 52.7637 146.721 52.5316C147.805 52.2994 148.598 52.0091 149.101 51.6802C149.585 51.3319 149.991 51.0031 150.281 50.6548C150.571 50.3065 150.746 50.0163 150.784 49.7841L150.842 49.4358H158.621C158.621 50.6548 158.485 51.7576 158.195 52.7444C157.924 53.7311 157.421 54.6986 156.705 55.6273C155.989 56.556 155.06 57.33 153.919 57.9491C152.777 58.5683 151.287 59.0714 149.469 59.439C147.65 59.8066 145.522 60.0001 143.122 60.0001C140.162 60.0001 137.685 59.7485 135.692 59.2648C133.7 58.7811 132.094 58.0073 130.894 56.9431C129.675 55.8983 128.824 54.6212 128.301 53.112C127.798 51.6028 127.527 49.7647 127.527 47.5783C127.527 45.2178 127.856 43.2055 128.514 41.5222C129.172 39.8582 130.178 38.5038 131.494 37.4977C132.809 36.4722 134.415 35.737 136.273 35.292C138.13 34.847 140.355 34.6147 142.909 34.6147C145.773 34.6147 148.25 34.8856 150.301 35.4274C152.352 35.9691 153.977 36.7431 155.176 37.7492C156.376 38.7747 157.247 39.9356 157.789 41.2707C158.33 42.6057 158.601 44.1537 158.601 45.9144H150.823C150.804 45.7983 150.765 45.6435 150.707 45.45C150.668 45.2565 150.475 44.9276 150.146 44.4632C149.817 43.9989 149.391 43.5731 148.869 43.2055C148.346 42.8379 147.553 42.4896 146.508 42.1994C145.463 41.9091 144.244 41.7544 142.851 41.7544C141.613 41.7544 140.549 41.8704 139.62 42.0833C138.691 42.2961 137.976 42.5671 137.434 42.896ZM186.888 19.097H167.54V16.8527H185.669V10.1774H167.54H159.858C159.607 10.1774 159.375 10.0613 159.22 9.88721V26.082H186.888V19.1164V19.097ZM175.299 7.93299H159.858C159.607 7.93299 159.375 8.04901 159.22 8.22315V1.00616H186.888V7.97161H175.511C175.453 7.93291 175.299 7.93299 175.299 7.93299ZM213.686 49.668L209.468 43.9795H195.518C195.092 43.9795 194.744 43.5925 194.744 43.1281V42.6057C194.744 42.122 195.092 41.7543 195.518 41.7543H207.823L202.696 34.8275H192.112V41.7543H192.557C192.983 41.7543 193.331 42.1413 193.331 42.6057V43.1281C193.331 43.5925 192.983 43.9795 192.557 43.9795H192.112V59.884H199.697V44.7727L210.9 59.884H221.251V34.8275H213.705V49.6873L213.686 49.668ZM187.857 43.9601C188.282 43.9601 188.631 43.5731 188.631 43.1088V42.5863C188.631 42.1219 188.282 41.735 187.857 41.735C187.431 41.735 187.083 42.1219 187.083 42.5863V43.1088C187.083 43.5731 187.431 43.9601 187.857 43.9601ZM184.877 43.9601C185.303 43.9601 185.651 43.5731 185.651 43.1088V42.5863C185.651 42.1219 185.303 41.735 184.877 41.735H183.465C183.039 41.735 182.691 42.1219 182.691 42.5863V43.1088C182.691 43.5731 183.039 43.9601 183.465 43.9601H184.877ZM175.532 54.834L182.961 47.3848H182.942C183 47.3461 183.02 47.2687 183.02 47.2107C183.02 47.1526 182.942 47.0365 182.942 47.0365L180.562 44.6566C180.524 44.6179 180.388 44.5986 180.388 44.5986H177.002C176.905 44.5986 176.809 44.6566 176.77 44.7533C176.731 44.8501 176.828 45.0243 176.828 45.0243L179.034 47.23L175.338 50.9256L171.643 47.23L173.848 45.0243C173.906 44.9469 173.945 44.8501 173.906 44.7533C173.868 44.6566 173.771 44.5986 173.674 44.5986H170.288C170.23 44.5986 170.114 44.676 170.114 44.676L167.734 47.0558C167.637 47.1526 167.637 47.3074 167.734 47.4041L175.183 54.834C175.241 54.8921 175.299 54.9114 175.357 54.9114C175.416 54.9114 175.532 54.834 175.532 54.834ZM175.145 39.6067L171.701 43.07V43.0507C171.643 43.1281 171.604 43.2248 171.643 43.3216C171.681 43.4183 171.778 43.4764 171.875 43.4764H175.396H178.782C178.879 43.4764 178.976 43.4183 179.014 43.3216C179.053 43.2248 178.956 43.0507 178.956 43.0507L175.493 39.6067C175.396 39.5099 175.145 39.6067 175.145 39.6067ZM190.333 43.9601H190.43L190.449 43.9988C190.604 44.9856 190.701 46.0691 190.701 47.23C190.701 49.1842 190.488 50.8869 190.062 52.2993C189.637 53.7118 189.037 54.9307 188.244 55.9175C187.45 56.9043 186.405 57.7169 185.109 58.3167C183.832 58.9165 182.362 59.3615 180.736 59.6131C179.092 59.8646 177.196 60 175.029 60C169.65 60 165.722 58.9166 163.284 56.7689C160.846 54.6018 159.627 51.2739 159.627 46.7463C159.627 42.5477 160.865 39.4519 163.361 37.4396C165.857 35.4274 169.669 34.4213 174.796 34.4213C176.867 34.4213 178.685 34.5374 180.272 34.7889C181.859 35.0211 183.31 35.4467 184.664 36.0465C186.019 36.6463 187.121 37.4203 187.973 38.3877C188.785 39.3164 189.443 40.4773 189.908 41.8704C189.695 42.0252 189.559 42.2767 189.559 42.5863V43.1088C189.559 43.5731 189.908 43.9601 190.333 43.9601ZM197.202 8.78434C197.202 8.30062 197.589 7.93299 198.053 7.93299H199.601C200.065 7.93299 200.452 8.31997 200.452 8.78434V9.30667C200.452 9.79038 200.065 10.158 199.601 10.158H198.053C197.589 10.158 197.202 9.77103 197.202 9.30667V8.78434ZM202.02 8.78434C202.02 8.30062 202.407 7.93299 202.871 7.93299C203.335 7.93299 203.722 8.31997 203.722 8.78434V9.30667C203.722 9.79038 203.335 10.158 202.871 10.158C202.407 10.158 202.02 9.77103 202.02 9.30667V8.78434ZM197.086 10.9514L209.372 26.0626H220.73V10.158H212.448V15.8465L207.824 10.158H205.638C205.154 10.158 204.786 9.77103 204.786 9.30667V8.78434C204.786 8.30062 205.173 7.93299 205.638 7.93299H206.005L200.375 1.00616H188.766V26.0626H197.086V10.9514Z" fill="white"/>
<path d="M31.0351 32.0026C38.7939 32.0026 41.6381 28.9843 41.6381 21.2255V13.0603C41.6381 5.30151 38.7746 2.28324 31.0351 2.28324H2.45725V32.0026H31.0351ZM31.0351 34.2858H25.4821L43.2054 58.781H40.187L22.4637 34.2858H2.45725V58.781H0V0H31.0158C39.9935 0 44.0761 4.08255 44.0761 13.0603V21.2255C44.0761 30.2032 39.9935 34.2858 31.0158 34.2858" fill="#87FF4F"/>
<path d="M60.426 0H57.9688V58.781H60.426V0Z" fill="#87FF4F"/>
<path d="M116.343 13.0603C116.343 5.30151 113.48 2.28324 105.74 2.28324H87.7849C80.0261 2.28324 77.1625 5.30151 77.1625 13.0603V45.7207C77.1625 53.4795 80.0261 56.4979 87.7849 56.4979H105.74C113.499 56.4979 116.343 53.4795 116.343 45.7207V13.0603ZM118.801 13.0603V45.7207C118.801 54.6985 114.718 58.781 105.74 58.781H87.7849C78.8072 58.781 74.7246 54.6985 74.7246 45.7207V13.0603C74.7246 4.08255 78.8072 0 87.7849 0H105.74C114.718 0 118.801 4.08255 118.801 13.0603Z" fill="#87FF4F"/>
<path d="M270.532 13.0603C270.532 5.30151 267.669 2.28324 259.929 2.28324H245.224C237.466 2.28324 234.602 5.30151 234.602 13.0603V45.7207C234.602 53.4795 237.466 56.4979 245.224 56.4979H259.929C267.688 56.4979 270.532 53.4795 270.532 45.7207V13.0603ZM272.99 13.0603V45.7207C272.99 54.6985 268.907 58.781 259.929 58.781H245.224C236.247 58.781 232.164 54.6985 232.164 45.7207V13.0603C232.164 4.08255 236.247 0 245.224 0H259.929C268.907 0 272.99 4.08255 272.99 13.0603Z" fill="#87FF4F"/>
<path d="M282.78 56.4979H321.149V58.781H280.323V45.7207C280.323 35.524 283.593 33.8794 293.384 30.6095L308.088 25.7144C315.441 23.2764 318.691 22.4444 318.691 13.0603C318.691 5.30151 315.828 2.28324 308.088 2.28324H293.384C285.625 2.28324 282.78 5.30151 282.78 13.0603V17.1429H280.323V13.0603C280.323 4.08255 284.406 0 293.384 0H308.088C317.066 0 321.149 4.08255 321.149 13.0603C321.149 23.2764 317.879 24.9016 308.088 28.1715L293.384 33.0668C286.031 35.5241 282.78 36.3367 282.78 45.7207V56.4979Z" fill="#87FF4F"/>
<path d="M368.494 13.0603V17.5492C368.494 28.5779 361.142 28.9843 361.142 28.9843V29.7969C361.142 29.7969 368.494 30.2031 368.494 41.2318V45.7207C368.494 54.6985 364.412 58.781 355.434 58.781H340.729C331.751 58.781 327.669 54.6985 327.669 45.7207V41.6382H330.126V45.7207C330.126 53.4795 332.99 56.4979 340.749 56.4979H355.453C363.212 56.4979 366.057 53.4795 366.057 45.7207V41.2318C366.057 33.4731 363.193 30.5321 355.453 30.5321H339.936V28.249H355.453C363.212 28.249 366.057 25.308 366.057 17.5492V13.0603C366.057 5.30151 363.193 2.28324 355.453 2.28324H340.749C332.99 2.28324 330.126 5.30151 330.126 13.0603V17.1429H327.669V13.0603C327.669 4.08255 331.751 0 340.729 0H355.434C364.412 0 368.494 4.08255 368.494 13.0603Z" fill="#87FF4F"/>
</svg>
