<svg width="60" height="369" viewBox="0 0 60 369" fill="none" xmlns="http://www.w3.org/2000/svg">
<path d="M44.1531 232.844C43.65 232.534 43.2244 232.109 42.8955 231.567C42.5666 231.025 42.2956 230.309 42.0828 229.38C41.8699 228.452 41.7539 227.388 41.7539 226.149C41.7539 224.756 41.9086 223.537 42.1989 222.492C42.4891 221.447 42.8374 220.654 43.205 220.132C43.5727 219.609 43.9984 219.184 44.4627 218.855C44.9271 218.526 45.2561 218.332 45.4495 218.294C45.643 218.236 45.7978 218.197 45.9139 218.178L45.9139 210.399C44.1532 210.399 42.6052 210.67 41.2702 211.212C39.9351 211.754 38.7742 212.625 37.7487 213.824C36.7426 215.024 35.9686 216.649 35.4269 218.7C34.8851 220.751 34.6143 223.228 34.6143 226.091C34.6143 228.645 34.8465 230.87 35.2915 232.728C35.7365 234.585 36.4717 236.191 37.4972 237.507C38.5033 238.823 39.8577 239.829 41.5217 240.487C43.205 241.144 45.2173 241.473 47.5778 241.473C49.7642 241.473 51.6023 241.202 53.1115 240.699C54.6207 240.177 55.8978 239.326 56.9426 238.107C58.0068 236.907 58.7806 235.301 59.2643 233.308C59.7481 231.315 59.9996 228.839 59.9996 225.878C59.9996 223.479 59.8062 221.351 59.4385 219.532C59.0709 217.713 58.5678 216.223 57.9487 215.082C57.3295 213.94 56.5555 213.012 55.6268 212.296C54.6981 211.58 53.7307 211.077 52.7439 210.806C51.7571 210.516 50.6543 210.38 49.4353 210.38L49.4353 218.158L49.7836 218.216C50.0158 218.255 50.306 218.429 50.6543 218.719C51.0026 219.01 51.3315 219.416 51.6797 219.9C52.0087 220.403 52.2989 221.196 52.5311 222.279C52.7633 223.363 52.8793 224.64 52.8793 226.13C52.8793 227.62 52.7439 228.781 52.4537 229.767C52.1635 230.774 51.7571 231.528 51.2154 232.07C50.6736 232.612 50.0931 232.999 49.4546 233.25C48.8161 233.482 48.0809 233.598 47.2489 233.598C46.6491 233.598 46.1073 233.54 45.6236 233.444C45.1399 233.328 44.6369 233.134 44.1145 232.805" fill="white"/>
<path d="M8.78403 223.227C8.30032 223.227 7.93269 222.84 7.93269 222.376L7.93269 220.828C7.93269 220.364 8.31966 219.977 8.78403 219.977L9.30636 219.977C9.77073 219.977 10.1577 220.364 10.1577 220.828L10.1577 222.376C10.1577 222.84 9.77073 223.227 9.30636 223.227L8.78403 223.227ZM8.78403 218.41C8.30032 218.41 7.93269 218.023 7.93269 217.558C7.93269 217.094 8.31966 216.707 8.78403 216.707L9.30636 216.707C9.77073 216.707 10.1577 217.094 10.1577 217.558C10.1577 218.023 9.77073 218.41 9.30636 218.41L8.78403 218.41ZM26.0623 239.945L26.0623 212.025L19.1355 212.025L19.1355 228.239L10.1577 213.785L10.1577 214.811C10.1577 215.275 9.77073 215.662 9.30636 215.662L8.78403 215.662C8.30032 215.662 7.93269 215.275 7.93269 214.811L7.93269 212.412C7.93269 212.276 7.97136 212.141 8.02941 212.025L1.00586 212.025L1.00586 240.409L7.9713 240.409L7.9713 223.924L18.0713 240.409L26.0623 240.409L26.0623 239.945Z" fill="white"/>
<path d="M19.0965 182.112L19.0965 201.461L16.8522 201.461L16.8522 183.331L10.1769 183.331L10.1769 201.461L10.1769 209.142C10.1769 209.394 10.0609 209.626 9.88672 209.781L26.0815 209.781L26.0815 182.112L19.1159 182.112L19.0965 182.112Z" fill="white"/>
<path d="M7.93269 209.161L7.93269 193.702C7.93269 193.702 7.93261 193.547 7.9713 193.489L7.9713 182.112L1.00586 182.112L1.00586 209.781L8.22285 209.781C8.04871 209.626 7.93269 209.394 7.93269 209.142" fill="white"/>
<path d="M49.6676 155.314L43.9791 159.532L43.9791 173.483C43.9791 173.908 43.5921 174.256 43.1278 174.256L42.6053 174.256C42.1216 174.256 41.754 173.908 41.754 173.483L41.754 161.177L34.8271 166.304L34.8271 176.888L41.754 176.888L41.754 176.443C41.754 176.017 42.141 175.669 42.6053 175.669L43.1278 175.669C43.5921 175.669 43.9791 176.017 43.9791 176.443L43.9791 176.888L59.8836 176.888L59.8836 169.303L44.7724 169.303L59.8836 158.1L59.8836 147.749L34.8271 147.749L34.8271 155.295L49.687 155.295L49.6676 155.314Z" fill="white"/>
<path d="M43.1084 180.37C43.5728 180.37 43.9597 180.719 43.9597 181.144C43.9597 181.57 43.5728 181.918 43.1084 181.918L42.5859 181.918C42.1216 181.918 41.7346 181.57 41.7346 181.144C41.7346 180.719 42.1216 180.37 42.5859 180.37L43.1084 180.37ZM43.1084 183.35C43.5728 183.35 43.9597 183.698 43.9597 184.124L43.9597 185.536C43.9597 185.962 43.5728 186.31 43.1084 186.31L42.5859 186.31C42.1216 186.31 41.7346 185.962 41.7346 185.536L41.7346 184.124C41.7346 183.698 42.1216 183.35 42.5859 183.35L43.1084 183.35ZM47.3845 186.039L54.8336 193.469C54.8336 193.469 54.911 193.585 54.911 193.643C54.911 193.701 54.8917 193.759 54.8336 193.817L47.4037 201.267C47.307 201.363 47.1522 201.363 47.0555 201.267L44.6756 198.887C44.6756 198.887 44.5983 198.771 44.5983 198.713L44.5983 195.327C44.5983 195.23 44.6562 195.133 44.753 195.095C44.8497 195.056 44.9465 195.095 45.0239 195.153L47.2297 197.358L50.9252 193.663L47.2297 189.967L45.0239 192.173C45.0239 192.173 44.8497 192.27 44.753 192.231C44.6562 192.192 44.5983 192.095 44.5983 191.999L44.5983 188.613C44.5983 188.613 44.6176 188.477 44.6563 188.439L47.0361 186.059C47.0361 186.059 47.1522 185.981 47.2103 185.981C47.2683 185.981 47.3458 186.001 47.3845 186.059M43.0697 197.3L39.6063 193.856C39.6063 193.856 39.5096 193.605 39.6063 193.508L43.0503 190.045C43.0503 190.045 43.2245 189.948 43.3212 189.987C43.4179 190.025 43.476 190.122 43.476 190.219L43.476 193.605L43.476 197.126C43.476 197.223 43.4179 197.32 43.3212 197.358C43.2245 197.397 43.1277 197.358 43.0503 197.3M43.9597 178.571L43.9597 178.668C43.9597 179.093 43.5728 179.442 43.1084 179.442L42.5859 179.442C42.2764 179.442 42.0248 179.306 41.8701 179.093C40.477 179.558 39.3161 180.215 38.3873 181.028C37.4199 181.879 36.6459 182.982 36.0461 184.337C35.4463 185.691 35.0207 187.142 34.7885 188.729C34.537 190.315 34.4209 192.134 34.4209 194.204C34.4209 199.332 35.427 203.144 37.4393 205.64C39.4515 208.135 42.5473 209.374 46.7459 209.374C51.2735 209.374 54.6015 208.155 56.7685 205.717C58.9162 203.279 59.9997 199.351 59.9997 193.972C59.9997 191.805 59.8642 189.909 59.6127 188.264C59.3612 186.639 58.9162 185.169 58.3164 183.892C57.7166 182.595 56.9039 181.55 55.9172 180.757C54.9304 179.964 53.7114 179.364 52.299 178.938C50.8865 178.513 49.1839 178.3 47.2297 178.3C46.0687 178.3 44.9853 178.397 43.9985 178.551" fill="white"/>
<path d="M8.78403 171.799C8.30032 171.799 7.93269 171.412 7.93269 170.948L7.93269 169.4C7.93269 168.936 8.31966 168.549 8.78403 168.549L9.30636 168.549C9.79008 168.549 10.1577 168.936 10.1577 169.4L10.1577 170.948C10.1577 171.412 9.77073 171.799 9.30636 171.799L8.78403 171.799ZM8.78403 166.981C8.30032 166.981 7.93269 166.594 7.93269 166.13C7.93269 165.666 8.31966 165.279 8.78403 165.279L9.30636 165.279C9.79008 165.279 10.1577 165.666 10.1577 166.13C10.1577 166.594 9.77073 166.981 9.30636 166.981L8.78403 166.981ZM10.9511 171.915L26.0623 159.629L26.0623 148.271L10.1577 148.271L10.1577 156.552L15.8462 156.552L10.1577 161.177L10.1577 163.363C10.1577 163.847 9.77073 164.214 9.30636 164.214L8.78403 164.214C8.30032 164.214 7.93269 163.827 7.93269 163.363L7.93269 162.996L1.00586 168.626L1.00586 180.235L26.0623 180.235L26.0623 171.915L10.9511 171.915Z" fill="white"/>
<path d="M1.00586 148.31L1.00586 156.591L7.93269 156.591L7.93269 148.31L1.00586 148.31Z" fill="white"/>
<path d="M32.0026 337.965C32.0026 330.206 28.9843 327.362 21.2255 327.362L13.0603 327.362C5.30151 327.362 2.28324 330.225 2.28324 337.965L2.28324 366.543L32.0026 366.543L32.0026 337.965ZM34.2858 337.965L34.2858 343.518L58.781 325.795L58.781 328.813L34.2858 346.536L34.2858 366.543L58.781 366.543L58.781 369L0 369L-1.35574e-06 337.984C-1.74817e-06 329.006 4.08255 324.924 13.0603 324.924L21.2255 324.924C30.2032 324.924 34.2858 329.006 34.2858 337.984" fill="#87FF4F"/>
<path d="M-1.07411e-07 308.574L0 311.031L58.781 311.031L58.781 308.574L-1.07411e-07 308.574Z" fill="#87FF4F"/>
<path d="M13.0603 252.657C5.30151 252.657 2.28324 255.52 2.28324 263.26L2.28324 281.215C2.28324 288.974 5.30151 291.838 13.0603 291.838L45.7207 291.838C53.4795 291.838 56.4979 288.974 56.4979 281.215L56.4979 263.26C56.4979 255.501 53.4795 252.657 45.7207 252.657L13.0603 252.657ZM13.0603 250.199L45.7207 250.199C54.6985 250.199 58.781 254.282 58.781 263.26L58.781 281.215C58.781 290.193 54.6985 294.276 45.7207 294.276L13.0603 294.276C4.08255 294.276 -1.78454e-07 290.193 -5.70884e-07 281.215L-1.35574e-06 263.26C-1.74817e-06 254.282 4.08255 250.199 13.0603 250.199Z" fill="#87FF4F"/>
<path d="M13.0603 98.4674C5.30151 98.4674 2.28324 101.331 2.28324 109.07L2.28324 123.775C2.28324 131.534 5.30151 134.398 13.0603 134.398L45.7207 134.398C53.4795 134.398 56.4979 131.534 56.4979 123.775L56.4979 109.07C56.4979 101.312 53.4795 98.4674 45.7207 98.4674L13.0603 98.4674ZM13.0603 96.0102L45.7207 96.0102C54.6985 96.0102 58.781 100.093 58.781 109.07L58.781 123.775C58.781 132.753 54.6985 136.836 45.7207 136.836L13.0603 136.836C4.08255 136.836 -1.78454e-07 132.753 -5.70884e-07 123.775L-1.21366e-06 109.07C-1.60609e-06 100.093 4.08255 96.0102 13.0603 96.0102Z" fill="#87FF4F"/>
<path d="M56.4979 86.22L56.4979 47.8517L58.781 47.8517L58.781 88.6772L45.7207 88.6772C35.524 88.6772 33.8794 85.4073 30.6095 75.6169L25.7144 60.912C23.2764 53.5595 22.4444 50.309 13.0603 50.309C5.30151 50.309 2.28324 53.1726 2.28324 60.912L2.28324 75.6169C2.28324 83.3757 5.30151 86.22 13.0603 86.22L17.1429 86.22L17.1429 88.6772L13.0603 88.6772C4.08255 88.6772 -1.78454e-07 84.5947 -5.70884e-07 75.6169L-1.21366e-06 60.912C-1.60609e-06 51.9343 4.08255 47.8517 13.0603 47.8517C23.2764 47.8517 24.9016 51.1216 28.1715 60.912L33.0668 75.6169C35.5241 82.9694 36.3367 86.22 45.7207 86.22L56.4979 86.22Z" fill="#87FF4F"/>
<path d="M13.0603 0.505821L17.5492 0.50582C28.5779 0.50582 28.9843 7.85826 28.9843 7.85826L29.7969 7.85826C29.7969 7.85826 30.2031 0.50582 41.2318 0.505819L45.7207 0.505819C54.6985 0.505819 58.781 4.58837 58.781 13.5661L58.781 28.271C58.781 37.2487 54.6985 41.3313 45.7207 41.3313L41.6382 41.3313L41.6382 38.874L45.7207 38.874C53.4795 38.874 56.4979 36.0105 56.4979 28.2517L56.4979 13.5467C56.4979 5.78797 53.4795 2.9437 45.7207 2.9437L41.2318 2.9437C33.4731 2.9437 30.5321 5.80731 30.5321 13.5467L30.5321 29.0643L28.249 29.0643L28.249 13.5467C28.249 5.78797 25.308 2.9437 17.5492 2.9437L13.0603 2.9437C5.30151 2.9437 2.28324 5.80732 2.28324 13.5468L2.28324 28.2517C2.28324 36.0105 5.30151 38.874 13.0603 38.874L17.1429 38.874L17.1429 41.3313L13.0603 41.3313C4.08255 41.3313 -1.78454e-07 37.2487 -5.70884e-07 28.271L-1.21365e-06 13.5661C-1.60608e-06 4.58838 4.08255 0.505821 13.0603 0.505821Z" fill="#87FF4F"/>
</svg>
