<svg width="22" height="330" viewBox="0 0 22 330" fill="none" xmlns="http://www.w3.org/2000/svg">
<path d="M17.0393 57.1577C15.1809 57.1577 13.6656 55.6438 13.6656 53.7872C13.6656 52.2733 14.6663 51.0022 16.0387 50.588V18.725L0.127777 2.82921V-1.62338e-05L18.04 17.8967V50.5737C19.4124 51.0022 20.4131 52.2733 20.4131 53.7729C20.4131 55.6296 18.8978 57.1434 17.0393 57.1434V57.1577Z" fill="#87FF4F"/>
<path d="M10.9072 83.9221L21.0713 94.0765V177.997L11.5362 187.523V258.59L0.471478 269.63L0.0140228 57.1577L10.9072 68.0406V83.9221Z" fill="#47494D"/>
<path d="M11.4083 273.686V295.209L0.000478745 306.621V282.198L11.4512 270.759L11.4083 273.686Z" fill="#47494D"/>
<path d="M11.4083 310.662V318.603L0.000478745 330V319.174L11.4512 307.734L11.4083 310.662Z" fill="#87FF4F"/>
</svg>
