<svg width="282" height="18" viewBox="0 0 282 18" fill="none" xmlns="http://www.w3.org/2000/svg">
<path d="M233.072 14.5555C233.072 12.968 234.365 11.6735 235.951 11.6735C237.245 11.6735 238.33 12.5284 238.684 13.7007L265.903 13.7007L279.482 0.109007L281.898 0.109007L266.61 15.4103L238.696 15.4103C238.33 16.5827 237.245 17.4375 235.964 17.4375C234.378 17.4375 233.084 16.1431 233.084 14.5555L233.072 14.5555Z" fill="#87FF4F"/>
<path d="M210.209 9.31743L201.535 18L129.846 18L121.709 9.85475L61.0008 9.85475L51.5701 0.402841L233.072 0.0120716L223.776 9.31743L210.209 9.31743Z" fill="#47494D"/>
<path d="M48.1044 9.74498L29.7187 9.74498L19.9708 -8.0148e-06L40.8331 -7.10288e-06L50.6055 9.78162L48.1044 9.74498Z" fill="#47494D"/>
<path d="M16.5185 9.74498L9.73519 9.74498L-0.000571777 -7.50712e-06L9.24717 -7.10288e-06L19.0195 9.78162L16.5185 9.74498Z" fill="#87FF4F"/>
</svg>
