<svg id="visual" viewBox="0 0 960 200" width="960" height="200" xmlns="http://www.w3.org/2000/svg" xmlns:xlink="http://www.w3.org/1999/xlink" version="1.1"><path d="M0 55L32 66.3C64 77.7 128 100.3 192 93C256 85.7 320 48.3 384 36.3C448 24.3 512 37.7 576 53C640 68.3 704 85.7 768 77.5C832 69.3 896 35.7 928 18.8L960 2L960 201L928 201C896 201 832 201 768 201C704 201 640 201 576 201C512 201 448 201 384 201C320 201 256 201 192 201C128 201 64 201 32 201L0 201Z" fill="#5d1d91"></path><path d="M0 65L32 65.2C64 65.3 128 65.7 192 69.3C256 73 320 80 384 89.2C448 98.3 512 109.7 576 116C640 122.3 704 123.7 768 111C832 98.3 896 71.7 928 58.3L960 45L960 201L928 201C896 201 832 201 768 201C704 201 640 201 576 201C512 201 448 201 384 201C320 201 256 201 192 201C128 201 64 201 32 201L0 201Z" fill="#402580"></path><path d="M0 102L32 95.7C64 89.3 128 76.7 192 83.5C256 90.3 320 116.7 384 120.5C448 124.3 512 105.7 576 103.2C640 100.7 704 114.3 768 113.3C832 112.3 896 96.7 928 88.8L960 81L960 201L928 201C896 201 832 201 768 201C704 201 640 201 576 201C512 201 448 201 384 201C320 201 256 201 192 201C128 201 64 201 32 201L0 201Z" fill="#28266d"></path><path d="M0 105L32 109.2C64 113.3 128 121.7 192 129.5C256 137.3 320 144.7 384 148.5C448 152.3 512 152.7 576 156.2C640 159.7 704 166.3 768 167.3C832 168.3 896 163.7 928 161.3L960 159L960 201L928 201C896 201 832 201 768 201C704 201 640 201 576 201C512 201 448 201 384 201C320 201 256 201 192 201C128 201 64 201 32 201L0 201Z" fill="#172357"></path><path d="M0 133L32 135.2C64 137.3 128 141.7 192 146.7C256 151.7 320 157.3 384 152.5C448 147.7 512 132.3 576 125.3C640 118.3 704 119.7 768 122.8C832 126 896 131 928 133.5L960 136L960 201L928 201C896 201 832 201 768 201C704 201 640 201 576 201C512 201 448 201 384 201C320 201 256 201 192 201C128 201 64 201 32 201L0 201Z" fill="#111e3f"></path><path d="M0 151L32 156.3C64 161.7 128 172.3 192 179.5C256 186.7 320 190.3 384 188.7C448 187 512 180 576 173.2C640 166.3 704 159.7 768 159.5C832 159.3 896 165.7 928 168.8L960 172L960 201L928 201C896 201 832 201 768 201C704 201 640 201 576 201C512 201 448 201 384 201C320 201 256 201 192 201C128 201 64 201 32 201L0 201Z" fill="#111827"></path></svg>