<svg id="visual" viewBox="0 0 960 200" width="960" height="200" xmlns="http://www.w3.org/2000/svg" xmlns:xlink="http://www.w3.org/1999/xlink" version="1.1"><path d="M0 81L26.7 78.7C53.3 76.3 106.7 71.7 160 72.2C213.3 72.7 266.7 78.3 320 72C373.3 65.7 426.7 47.3 480 53C533.3 58.7 586.7 88.3 640 100.8C693.3 113.3 746.7 108.7 800 93C853.3 77.3 906.7 50.7 933.3 37.3L960 24L960 201L933.3 201C906.7 201 853.3 201 800 201C746.7 201 693.3 201 640 201C586.7 201 533.3 201 480 201C426.7 201 373.3 201 320 201C266.7 201 213.3 201 160 201C106.7 201 53.3 201 26.7 201L0 201Z" fill="#5d1d91"></path><path d="M0 64L26.7 65.3C53.3 66.7 106.7 69.3 160 74.8C213.3 80.3 266.7 88.7 320 91.2C373.3 93.7 426.7 90.3 480 96.7C533.3 103 586.7 119 640 123C693.3 127 746.7 119 800 111.3C853.3 103.7 906.7 96.3 933.3 92.7L960 89L960 201L933.3 201C906.7 201 853.3 201 800 201C746.7 201 693.3 201 640 201C586.7 201 533.3 201 480 201C426.7 201 373.3 201 320 201C266.7 201 213.3 201 160 201C106.7 201 53.3 201 26.7 201L0 201Z" fill="#402580"></path><path d="M0 120L26.7 123.7C53.3 127.3 106.7 134.7 160 129.5C213.3 124.3 266.7 106.7 320 96.7C373.3 86.7 426.7 84.3 480 81.2C533.3 78 586.7 74 640 78.7C693.3 83.3 746.7 96.7 800 100.7C853.3 104.7 906.7 99.3 933.3 96.7L960 94L960 201L933.3 201C906.7 201 853.3 201 800 201C746.7 201 693.3 201 640 201C586.7 201 533.3 201 480 201C426.7 201 373.3 201 320 201C266.7 201 213.3 201 160 201C106.7 201 53.3 201 26.7 201L0 201Z" fill="#28266d"></path><path d="M0 122L26.7 123.8C53.3 125.7 106.7 129.3 160 128.5C213.3 127.7 266.7 122.3 320 125.8C373.3 129.3 426.7 141.7 480 145.2C533.3 148.7 586.7 143.3 640 133.8C693.3 124.3 746.7 110.7 800 104.5C853.3 98.3 906.7 99.7 933.3 100.3L960 101L960 201L933.3 201C906.7 201 853.3 201 800 201C746.7 201 693.3 201 640 201C586.7 201 533.3 201 480 201C426.7 201 373.3 201 320 201C266.7 201 213.3 201 160 201C106.7 201 53.3 201 26.7 201L0 201Z" fill="#172357"></path><path d="M0 173L26.7 167.5C53.3 162 106.7 151 160 147.8C213.3 144.7 266.7 149.3 320 148C373.3 146.7 426.7 139.3 480 136.5C533.3 133.7 586.7 135.3 640 138.3C693.3 141.3 746.7 145.7 800 143.8C853.3 142 906.7 134 933.3 130L960 126L960 201L933.3 201C906.7 201 853.3 201 800 201C746.7 201 693.3 201 640 201C586.7 201 533.3 201 480 201C426.7 201 373.3 201 320 201C266.7 201 213.3 201 160 201C106.7 201 53.3 201 26.7 201L0 201Z" fill="#111e3f"></path><path d="M0 154L26.7 159.8C53.3 165.7 106.7 177.3 160 177.5C213.3 177.7 266.7 166.3 320 165.2C373.3 164 426.7 173 480 173.3C533.3 173.7 586.7 165.3 640 167C693.3 168.7 746.7 180.3 800 183.7C853.3 187 906.7 182 933.3 179.5L960 177L960 201L933.3 201C906.7 201 853.3 201 800 201C746.7 201 693.3 201 640 201C586.7 201 533.3 201 480 201C426.7 201 373.3 201 320 201C266.7 201 213.3 201 160 201C106.7 201 53.3 201 26.7 201L0 201Z" fill="#111827"></path></svg>