<svg id="visual" viewBox="0 0 960 540" width="960" height="540" xmlns="http://www.w3.org/2000/svg" xmlns:xlink="http://www.w3.org/1999/xlink" version="1.1"><path d="M0 181L22.8 193.3C45.7 205.7 91.3 230.3 137 233.5C182.7 236.7 228.3 218.3 274 208C319.7 197.7 365.3 195.3 411.2 203.7C457 212 503 231 548.8 240.5C594.7 250 640.3 250 686 236.3C731.7 222.7 777.3 195.3 823 183.8C868.7 172.3 914.3 176.7 937.2 178.8L960 181L960 541L937.2 541C914.3 541 868.7 541 823 541C777.3 541 731.7 541 686 541C640.3 541 594.7 541 548.8 541C503 541 457 541 411.2 541C365.3 541 319.7 541 274 541C228.3 541 182.7 541 137 541C91.3 541 45.7 541 22.8 541L0 541Z" fill="#e469fa"></path><path d="M0 265L22.8 269.3C45.7 273.7 91.3 282.3 137 277.5C182.7 272.7 228.3 254.3 274 255.2C319.7 256 365.3 276 411.2 277.7C457 279.3 503 262.7 548.8 252.7C594.7 242.7 640.3 239.3 686 246.2C731.7 253 777.3 270 823 272.8C868.7 275.7 914.3 264.3 937.2 258.7L960 253L960 541L937.2 541C914.3 541 868.7 541 823 541C777.3 541 731.7 541 686 541C640.3 541 594.7 541 548.8 541C503 541 457 541 411.2 541C365.3 541 319.7 541 274 541C228.3 541 182.7 541 137 541C91.3 541 45.7 541 22.8 541L0 541Z" fill="#c858e6"></path><path d="M0 333L22.8 327.3C45.7 321.7 91.3 310.3 137 308.5C182.7 306.7 228.3 314.3 274 322.2C319.7 330 365.3 338 411.2 340C457 342 503 338 548.8 334C594.7 330 640.3 326 686 328.3C731.7 330.7 777.3 339.3 823 343.2C868.7 347 914.3 346 937.2 345.5L960 345L960 541L937.2 541C914.3 541 868.7 541 823 541C777.3 541 731.7 541 686 541C640.3 541 594.7 541 548.8 541C503 541 457 541 411.2 541C365.3 541 319.7 541 274 541C228.3 541 182.7 541 137 541C91.3 541 45.7 541 22.8 541L0 541Z" fill="#ad46d1"></path><path d="M0 343L22.8 344.2C45.7 345.3 91.3 347.7 137 350.2C182.7 352.7 228.3 355.3 274 358.5C319.7 361.7 365.3 365.3 411.2 369.5C457 373.7 503 378.3 548.8 380C594.7 381.7 640.3 380.3 686 376.2C731.7 372 777.3 365 823 367.8C868.7 370.7 914.3 383.3 937.2 389.7L960 396L960 541L937.2 541C914.3 541 868.7 541 823 541C777.3 541 731.7 541 686 541C640.3 541 594.7 541 548.8 541C503 541 457 541 411.2 541C365.3 541 319.7 541 274 541C228.3 541 182.7 541 137 541C91.3 541 45.7 541 22.8 541L0 541Z" fill="#9336bd"></path><path d="M0 433L22.8 432C45.7 431 91.3 429 137 424.3C182.7 419.7 228.3 412.3 274 409.5C319.7 406.7 365.3 408.3 411.2 409.5C457 410.7 503 411.3 548.8 416.8C594.7 422.3 640.3 432.7 686 436.5C731.7 440.3 777.3 437.7 823 431.2C868.7 424.7 914.3 414.3 937.2 409.2L960 404L960 541L937.2 541C914.3 541 868.7 541 823 541C777.3 541 731.7 541 686 541C640.3 541 594.7 541 548.8 541C503 541 457 541 411.2 541C365.3 541 319.7 541 274 541C228.3 541 182.7 541 137 541C91.3 541 45.7 541 22.8 541L0 541Z" fill="#7825a9"></path><path d="M0 460L22.8 460.3C45.7 460.7 91.3 461.3 137 462.5C182.7 463.7 228.3 465.3 274 466.5C319.7 467.7 365.3 468.3 411.2 466.7C457 465 503 461 548.8 461.3C594.7 461.7 640.3 466.3 686 467.5C731.7 468.7 777.3 466.3 823 466.7C868.7 467 914.3 470 937.2 471.5L960 473L960 541L937.2 541C914.3 541 868.7 541 823 541C777.3 541 731.7 541 686 541C640.3 541 594.7 541 548.8 541C503 541 457 541 411.2 541C365.3 541 319.7 541 274 541C228.3 541 182.7 541 137 541C91.3 541 45.7 541 22.8 541L0 541Z" fill="#5e1395"></path></svg>